<svg xmlns="http://www.w3.org/2000/svg" xmlns:xlink="http://www.w3.org/1999/xlink" version="1.1"
  viewBox="0 0 1024 1024">
  <path
    d="M139.264 529.152a27.136 27.136 0 0 1-14.592-2.816A32 32 0 0 1 113.152 486.4l130.816-236.032a28.416 28.416 0 1 1 49.152 28.928l-130.56 235.52a25.6 25.6 0 0 1-23.296 14.336"
    fill="#F99E4A"></path>
  <path
    d="M380.416 529.152a34.56 34.56 0 0 1-25.6-14.592l-131.328-235.264a30.208 30.208 0 0 1 11.52-37.632 25.6 25.6 0 0 1 37.888 11.52l130.816 235.264a25.6 25.6 0 0 1-11.776 37.888c-2.816 0-8.704 2.816-11.52 2.816m261.376 0a25.6 25.6 0 0 1-14.336-2.816 29.44 29.44 0 0 1-11.776-37.888l130.816-235.264a28.928 28.928 0 0 1 37.632-11.52 29.44 29.44 0 0 1 11.776 37.632L665.6 514.56a25.6 25.6 0 0 1-23.296 14.592"
    fill="#F99E4A"></path>
  <path
    d="M883.968 529.152a34.56 34.56 0 0 1-25.6-14.336l-130.56-235.52a27.392 27.392 0 0 1 11.52-37.632 25.6 25.6 0 0 1 37.888 11.52l130.56 235.52a25.6 25.6 0 0 1-11.776 37.632c-2.816 0-8.704 2.816-11.776 2.816"
    fill="#F99E4A"></path>
  <path
    d="M801.536 241.664l-130.56-51.2A129.536 129.536 0 0 0 640 183.552H380.416a153.6 153.6 0 0 0-32 5.632L217.6 241.664A21.248 21.248 0 0 0 226.304 281.6h569.6a21.248 21.248 0 0 0 5.632-40.704M458.752 281.6v520.704a51.2 51.2 0 0 0 104.704 0V281.6z"
    fill="#FFD043"></path>
  <path d="M561.152 183.296A51.2 51.2 0 0 0 512 139.776a52.992 52.992 0 0 0-51.2 46.336h102.4z" fill="#FFD043">
  </path>
  <path
    d="M755.2 877.824H267.008A41.472 41.472 0 0 1 230.4 816.896l55.04-122.112a44.8 44.8 0 0 1 37.888-25.6h373.76a37.12 37.12 0 0 1 37.632 25.6L790.016 819.2a37.888 37.888 0 0 1-34.816 58.112"
    fill="#F99E4A"></path>
  <path
    d="M900.352 494.336a9.216 9.216 0 0 1 8.704 8.704 148.48 148.48 0 0 1-296.192 0 7.68 7.68 0 0 1 8.704-8.704z m-502.528 0a9.216 9.216 0 0 1 8.704 8.704 151.808 151.808 0 0 1-148.224 142.336 150.016 150.016 0 0 1-148.224-142.336 7.68 7.68 0 0 1 8.704-8.704z"
    fill="#FFD043"></path>
</svg>