<svg xmlns="http://www.w3.org/2000/svg" xmlns:xlink="http://www.w3.org/1999/xlink" version="1.1"
  viewBox="0 0 1024 1024">
  <path d="M392.448 332.8a92.416 92.416 0 1 1-92.416-92.416A92.416 92.416 0 0 1 392.448 332.8" fill="#23ADE5">
  </path>
  <path
    d="M572.928 426.24A143.872 143.872 0 1 0 429.312 281.6a143.872 143.872 0 0 0 143.616 144.64zM826.624 521.472l-63.744 36.864v-48.64A72.192 72.192 0 0 0 691.2 437.76H190.72a72.192 72.192 0 0 0-71.936 71.936v295.424a71.936 71.936 0 0 0 71.936 71.936H691.2a71.936 71.936 0 0 0 71.936-71.936v-23.808L826.624 819.2a51.2 51.2 0 0 0 76.8-44.544V565.76a51.2 51.2 0 0 0-76.8-44.288z"
    fill="#48CFE5"></path>
  <path
    d="M425.216 569.856l124.16 71.936a25.6 25.6 0 0 1 0 42.496l-124.16 71.68a25.6 25.6 0 0 1-37.12-21.248v-143.36a25.6 25.6 0 0 1 37.12-21.504"
    fill="#FDDE80"></path>
</svg>