<svg xmlns="http://www.w3.org/2000/svg" xmlns:xlink="http://www.w3.org/1999/xlink" version="1.1"
  viewBox="0 0 1024 1024">
  <path
    d="M880.64 520.448C880.64 642.56 768 742.4 627.712 742.4H409.6l-165.632 74.496-92.928-258.56a146.688 146.688 0 0 1-3.072-37.888v-37.888c0-122.112 110.592-226.56 250.112-226.56h232.704c136.448 0 249.856 104.448 249.856 226.56v37.888zM642.304 209.408h-256a280.064 280.064 0 0 0-279.04 273.152v43.776a250.88 250.88 0 0 0 3.072 46.336L215.04 878.08l183.04-90.112h244.224c153.6 0 279.04-116.48 279.04-261.632v-43.776a279.808 279.808 0 0 0-279.04-273.152z m58.112 351.744a51.2 51.2 0 0 1-51.2-51.2 55.552 55.552 0 0 1 58.112-52.48 54.528 54.528 0 0 1 51.2 55.296 57.088 57.088 0 0 1-58.112 49.408m-179.2 0a51.2 51.2 0 0 1-51.2-51.2 55.552 55.552 0 0 1 58.112-52.48 54.528 54.528 0 0 1 51.2 55.296A59.392 59.392 0 0 1 521.216 563.2m-179.2 0a51.2 51.2 0 0 1-51.2-51.2 55.552 55.552 0 0 1 58.112-52.48 54.528 54.528 0 0 1 51.2 55.296 59.648 59.648 0 0 1-58.112 49.408m279.04-270.336h-208.384c-122.112 0-224 87.296-224 188.928V512a111.36 111.36 0 0 0 3.072 31.744L267.264 768l110.592-58.112H645.12A194.048 194.048 0 0 0 842.752 512v-29.44c-2.816-104.448-102.4-191.744-223.744-191.744"
    fill="#8FC31F"></path>
</svg>