<svg data-name="图层 1" xmlns="http://www.w3.org/2000/svg" viewBox="0 0 38.89 34.47"><path d="M9.72 31.95h2.5V12.37h-2.5zM24.44 9.73h10.42a4.15 4.15 0 013.33 1.67 4.38 4.38 0 01.56 3.47L34.3 29.59a6.37 6.37 0 01-6 4.86H5a4.52 4.52 0 01-4.31-2.36 5.61 5.61 0 01-.69-2.5V14.73a4.93 4.93 0 012.5-4.31A8.38 8.38 0 015 9.73h6.25l6.8-8.49a3.83 3.83 0 016.64 2.94zm10.14 2.51H21.66l.28-2.92.42-5.14a1.26 1.26 0 00-.18-1 1.28 1.28 0 00-.82-.56 1.11 1.11 0 00-1.25.42l-6.36 8.2-.83 1.11H4.58a2 2 0 00-.83.28 2.28 2.28 0 00-1.25 2.08v14.88a2 2 0 00.42 1.25A2 2 0 005 31.95h23.33a2.38 2.38 0 001.39-.41 3.61 3.61 0 002.08-2.78l4.44-14.58 2.5.56-2.5-.56a2.45 2.45 0 00-.14-1.39 2.89 2.89 0 00-1.52-.54l.28-2.5z" fill="silver"/></svg>