<svg aria-hidden="true" style="position: absolute; width: 0px; height: 0px; overflow: hidden;" id="be-category-icons">
  <symbol id="header-icon-live" viewBox="0 0 1024 1024">
    <path d="M392.448 275.911a92.416 92.416 0 1 1-184.832 0 92.416 92.416 0 0 1 184.832 0" fill="#23ADE5"></path>
    <path
      d="m826.624 464.583-63.744 36.864v-48.64a72.206 72.206 0 0 0-71.68-71.936H190.72a72.192 72.192 0 0 0-71.936 71.936v295.424a71.936 71.936 0 0 0 71.936 71.936H691.2a71.936 71.936 0 0 0 71.936-71.936v-23.808l63.488 37.888a51.2 51.2 0 0 0 76.8-44.544V508.871a51.2 51.2 0 0 0-76.8-44.288m-253.696-95.232c79.46.142 143.986-64.156 144.128-143.616.142-79.46-64.156-143.986-143.616-144.128-79.26-.142-143.701 63.858-144.128 143.104-.427 79.46 63.644 144.213 143.104 144.64h.512"
      fill="#48CFE5"></path>
    <path
      d="m425.216 512.967 124.16 71.936a25.6 25.6 0 0 1 0 42.496l-124.16 71.68a25.6 25.6 0 0 1-37.12-21.248v-143.36a25.6 25.6 0 0 1 37.12-21.504"
      fill="#FDDE80"></path>
  </symbol>
  <symbol id="header-icon-anime" viewBox="0 0 1024 1024">
    <path
      d="m588.8 359.68-12.032-7.424L727.04 145.664a30.976 30.976 0 0 0-51.2-36.352l-153.6 210.176L281.6 170.24a30.976 30.976 0 1 0-33.024 52.736L486.4 369.92l-22.784 31.488a30.976 30.976 0 1 0 51.2 36.352l25.6-35.072 16.128 9.728A30.976 30.976 0 1 0 588.8 359.68zM710.4 850.688a53.248 53.248 0 1 0 106.496 0 53.248 53.248 0 1 0-106.496 0ZM261.12 797.44a53.248 53.248 0 1 0 53.504 53.248 53.248 53.248 0 0 0-53.504-53.248z"
      fill="#FB813A"></path>
    <path
      d="M234.24 314.368h556.288q92.928 0 92.928 92.928V768q0 92.928-92.928 92.928H234.24q-92.928 0-92.928-92.928V407.296q0-92.928 92.928-92.928Z"
      fill="#FDDE80"></path>
    <path d="M392.192 575.232a128.256 128.256 0 1 0 256.512 0 128.256 128.256 0 1 0-256.512 0Z" fill="#FFF"></path>
    <path
      d="M476.928 546.56c0-26.88 19.2-37.632 42.24-25.6l49.664 28.672a25.6 25.6 0 0 1 0 48.64l-49.664 28.672c-23.04 13.568-42.24 2.56-42.24-24.32z"
      fill="#FB813A"></path>
  </symbol>
  <symbol id="header-icon-movie" viewBox="0 0 1024 1024">
    <path
      d="M954.624 452.864H919.04v-168.96a37.376 37.376 0 0 0-25.6-36.608 36.608 36.608 0 0 0-46.592 34.304v170.24H199.936V282.88a37.632 37.632 0 0 0-25.6-36.608A36.352 36.352 0 0 0 128 281.6v170.24H92.16a15.616 15.616 0 0 0-15.36 15.872V550.4a15.36 15.36 0 0 0 15.36 15.616h26.88v85.248a135.68 135.68 0 0 0 134.4 136.192h114.432a135.68 135.68 0 0 0 134.4-136.192v-20.992a7.936 7.936 0 0 1 7.68-7.936h25.6a7.68 7.68 0 0 1 7.68 7.936v20.992a135.936 135.936 0 0 0 134.4 136.192H793.6A135.68 135.68 0 0 0 928 651.264v-85.248h25.6a15.36 15.36 0 0 0 15.36-15.616v-81.664a15.616 15.616 0 0 0-15.36-15.872"
      fill="#E5E6E6"></path>
    <path
      d="M361.216 727.552h-102.4A87.296 87.296 0 0 1 172.8 640v-79.872a61.184 61.184 0 0 1 60.416-61.44h153.6a61.184 61.184 0 0 1 60.416 61.44V640a87.296 87.296 0 0 1-86.528 87.552"
      fill="#FF5C7A"></path>
    <path
      d="M685.568 727.552h102.4A87.296 87.296 0 0 0 873.984 640v-79.872a61.184 61.184 0 0 0-60.416-61.44h-153.6a61.184 61.184 0 0 0-60.416 61.44V640a87.296 87.296 0 0 0 86.528 87.552"
      fill="#2CBAE5"></path>
  </symbol>
  <symbol id="header-icon-guochuang" viewBox="0 0 1024 1024">
    <path
      d="M873.472 321.792c-46.08-46.592-102.4-73.472-161.536-40.192a177.152 177.152 0 0 0-51.2-161.536s-83.456 107.52-15.104 219.648c-12.288 13.568-24.32 27.136-36.352 39.424-26.88 27.136 14.592 69.12 41.216 41.984l68.608-69.632c40.704-40.96 76.8-23.808 112.896 12.288 26.624 26.88 68.096-15.104 41.472-41.984z"
      fill="#58D598"></path>
    <path
      d="M705.024 344.576a189.696 189.696 0 0 0-270.848 0 195.072 195.072 0 0 0-41.216 62.464 249.088 249.088 0 0 0-177.664 74.496 256 256 0 0 0 0 359.68 248.576 248.576 0 0 0 354.816 0 256 256 0 0 0 73.472-179.2 190.976 190.976 0 0 0 61.44-41.728 195.84 195.84 0 0 0 0-275.712z"
      fill="#FF5C7A"></path>
    <path
      d="M514.304 808.704a187.136 187.136 0 0 1-267.264-5.12 193.536 193.536 0 0 1 5.12-271.104s-45.056 120.832 43.776 214.272a210.176 210.176 0 0 0 218.368 61.952"
      fill="#F14767"></path>
  </symbol>
  <symbol id="header-icon-tv" viewBox="0 0 1024 1024">
    <path
      d="M271.616 247.808a212.224 212.224 0 0 0-49.664 172.8l25.6 126.72c56.832 21.76 60.16 87.552 67.328 149.248a1167.872 1167.872 0 0 1 190.208-14.08 1247.488 1247.488 0 0 1 196.096 14.08c7.68-61.696 4.352-126.72 59.904-148.736l25.6-128a211.712 211.712 0 0 0-49.92-172.288 218.624 218.624 0 0 0-165.12-74.752H436.736a218.624 218.624 0 0 0-165.12 74.752"
      fill="#FFB161"></path>
    <path
      d="m505.088 412.672-34.816-34.56a19.456 19.456 0 0 0-27.392 27.392l25.6 25.6-25.6 25.6a19.456 19.456 0 0 0 27.392 27.392l34.816-34.56 35.072 34.56a18.688 18.688 0 0 0 13.568 5.632 19.456 19.456 0 0 0 13.824-33.024l-25.6-25.6 25.6-25.6a19.456 19.456 0 0 0-13.824-33.024 18.688 18.688 0 0 0-13.568 5.632z"
      fill="#FFE494"></path>
    <path
      d="M822.016 482.56a130.816 130.816 0 0 0-133.888 128v68.864L320 680.96v-69.376a130.304 130.304 0 0 0-120.32-128h-13.568A81.92 81.92 0 0 0 102.4 563.2a76.8 76.8 0 0 0 0 13.312 79.104 79.104 0 0 0 38.912 54.784l8.96 4.352h2.304a25.6 25.6 0 0 1 15.36 22.016v63.744a112.384 112.384 0 0 0 80.896 105.472 51.2 51.2 0 0 0 98.816 5.888h313.088a51.2 51.2 0 0 0 98.816-5.888 112.384 112.384 0 0 0 79.104-105.472v-70.656a25.6 25.6 0 0 1 8.192-11.52h1.536l4.608-2.816a80.384 80.384 0 0 0 51.2-61.44v-12.032a81.92 81.92 0 0 0-83.712-79.616"
      fill="#FB952C"></path>
  </symbol>
  <symbol id="header-icon-zongyi" viewBox="0 0 1024 1024">
    <path
      d="M25.115 625.015c127-67.634 201.653-43.033 188.69 73.103l-.724 5.894c-13.961 104.648 52.674 162.367 81.945 128.3l1.698-2.123a24.976 24.976 0 1 1 40.211 29.646c-28.747 39.012-82.12 39.936-122.33 6.444-39.312-32.768-59.442-90.661-51.95-161.018l1.449-12.088.8-7.992c3.695-46.13-12.14-59.967-61.416-41.76l-8.517 3.347-9.166 3.922-9.79 4.495-10.49 5.145-11.114 5.695-5.844 3.072a24.976 24.976 0 1 1-23.477-44.082z"
      fill="#EC0000"></path>
    <path
      d="m419.355 437.872 237.268 148.256-217.887 254.8a79.922 79.922 0 0 1-103.1 15.835l-18.806-11.738a79.922 79.922 0 0 1-30.97-99.628l133.52-307.525z"
      fill="#FF5C00"></path>
    <path
      d="M385.488 416.718 690.49 607.282l-92.335 72.38c-29.621 20.454-77.899 9.74-144.859-32.094-66.984-41.86-97.78-80.572-92.384-116.137l24.576-114.713z"
      fill="#EC0000"></path>
    <path
      d="M432.167 681.484a26.524 26.524 0 0 1 6.569 39.187l-19.107 23.577a22.828 22.828 0 0 1-38.412-23.976l12.862-27.499a26.524 26.524 0 0 1 38.088-11.289z"
      fill="#FFD3A5"></path>
    <path
      d="M391.831 255.75c-76.025 121.631-39.036 281.9 82.62 357.9 121.656 76.026 281.924 39.038 357.925-82.619 76.026-121.63 39.037-281.9-82.62-357.9-121.655-76.026-281.899-39.037-357.925 82.62z"
      fill="#FF962A"></path>
    <path
      d="m749.757 173.106 5.145 3.322a258.997 258.997 0 0 1 112.165 167.336 77.55 77.55 0 0 1-11.413 36.89c-35.066 56.17-139.364 54.271-232.973-4.222-93.584-58.443-140.987-151.377-105.897-207.547 6.894-11.04 16.484-19.856 28.148-26.4a259.047 259.047 0 0 1 204.8 30.621z"
      fill="#FFB468"></path>
    <path
      d="M842.317 513.698a264.242 264.242 0 0 1-9.94 17.333c-76.026 121.657-236.27 158.645-357.901 82.645-121.681-76.026-158.67-236.27-82.67-357.926a278.773 278.773 0 0 1 11.24-16.559c-62.44 119.159-23.353 268.139 92.584 340.593 114.713 71.68 263.718 42.883 344.09-62.614l2.597-3.497z"
      fill="#FF6B18"></path>
    <path
      d="M380.168 236.694c-49.702 79.522 16.234 210.394 147.231 292.24 131.022 81.87 277.53 83.743 327.23 4.22 16.434-26.299 20.23-58.193 13.188-92.11 13.986 45.955 11.189 90.787-12.138 128.125-58.468 93.559-219.686 98.33-360.049 10.615-140.363-87.715-206.748-234.696-148.28-328.28 23.477-37.588 62.889-59.816 110.717-67.309-33.967 8.492-61.315 25.975-77.9 52.499z"
      fill="#FFB468"></path>
    <path
      d="m458.017 184.22 2.298-1.798c-26.824 21.054-43.833 37.338-51.05 48.877-43.858 70.182 17.657 187.742 139.313 263.743 121.657 76.025 253.952 79.572 297.81 9.39 7.742-12.388 14.86-33.642 21.354-63.787 7.143 34.041 3.396 66.085-13.112 92.51-49.702 79.522-196.209 77.673-327.23-4.222-131.023-81.845-196.934-212.717-147.232-292.24 16.584-26.523 43.932-44.006 77.849-52.473z"
      fill="#FFD3A5"></path>
  </symbol>
  <symbol id="header-icon-documentary" viewBox="0 0 1024 1024">
    <path
      d="M404.9 386.765c-70.897-2.565-143.347 12.06-196.65 38.182-48.848 23.963-117.63 89.46-121.928 135.563h735.323c-3.217 0-12.015-9.428-14.738-11.52-5.017-3.825-9.742-7.808-14.76-11.543-11.902-8.91-24.66-16.897-37.147-24.975a1040.175 1040.175 0 0 0-77.063-45.585c-52.47-27.945-107.865-50.805-165.69-65.002a533.88 533.88 0 0 0-107.347-15.12"
      fill="#47CFE5"></path>
    <path
      d="M744.605 489.163c-12.713 32.31-136.71 36.765-181.395 36.765H137.802c-15.232 0-29.767 5.197-39.757 14.265-9.9 8.977-14.107 20.767-11.7 32.355 0 .112 0 .27.09.337 9.293 43.672 35.73 83.34 76.365 114.683 1.62 1.26 3.263 2.52 4.928 3.735 106.74 78.457 292.522 81.157 423.45 43.875 41.445-11.79 80.865-28.17 115.177-49.635 38.992-24.39 78.795-57.308 102.308-91.733 3.465-5.062 41.22-61.177 41.962-60.885l-106.02-43.762z"
      fill="#47CFE5"></path>
    <path
      d="m918.058 505.317-29.88-17.077a75.082 75.082 0 0 0-70.11-2.138 75.375 75.375 0 0 0-37.418-59.354l-29.925-17.078a11.453 11.453 0 0 0-15.66 4.275l-7.83 13.703a59.063 59.063 0 0 0 21.96 80.572l15.795 9.045a.045.045 0 0 1-.045.045l51.48 29.43.045-.045 17.46 9.99a59.085 59.085 0 0 0 80.573-21.938l7.83-13.725a11.543 11.543 0 0 0-4.275-15.705"
      fill="#2BBAE4"></path>
    <path
      d="M654.515 712.497C351.327 720.867 266.3 564.425 266.3 564.425H85.782a31.995 31.995 0 0 0 .63 8.46c9.293 43.672 35.73 83.34 76.365 114.683 1.62 1.282 3.263 2.52 4.928 3.735 106.717 78.457 292.5 81.18 423.428 43.875a509.692 509.692 0 0 0 63.382-22.68"
      fill="#E5E6E6"></path>
    <path
      d="M654.515 712.497c-65.16 1.8-120.15-4.41-166.567-14.242-49.005-10.373-26.168 59.31-3.218 56.79 37.485-4.072 73.665-10.598 106.403-19.913a502.358 502.358 0 0 0 63.382-22.635"
      fill="#E4E5E4"></path>
    <path
      d="M407.127 674.923c21.578 69.84 69.705 117.652 116.775 113.647 3.735-.338 6.233-4.072 5.513-7.74L504.98 655.212a5.715 5.715 0 0 0-6.682-4.5l-86.715 16.898a5.782 5.782 0 0 0-4.455 7.313"
      fill="#47CFE5"></path>
    <path d="M441.238 614.712a29.295 29.295 0 1 1-58.613.023 29.295 29.295 0 0 1 58.612-.022" fill="#0099BC"></path>
    <path
      d="M252.597 310.467a64.282 64.282 0 0 1 64.305-64.102c18.81 0 35.73 8.122 47.52 21.127a64.17 64.17 0 0 1 111.713 42.975 16.56 16.56 0 0 1-16.582 16.583 16.56 16.56 0 0 1-16.605-16.583 31.05 31.05 0 0 0-61.988-2.16h-.18l.113 77.468a16.582 16.582 0 1 1-33.188 0v-75.397c0-17.033-13.928-30.938-30.96-30.938a31.05 31.05 0 0 0-31.027 31.027 16.56 16.56 0 1 1-33.12 0"
      fill="#47CFE5"></path>
    <path
      d="M364.332 408.027a22.253 22.253 0 0 1-22.207-22.23V310.4a25.358 25.358 0 1 0-50.715.09 22.23 22.23 0 0 1-44.415 0c0-38.453 31.365-69.75 69.907-69.75a69.75 69.75 0 0 1 47.52 18.765 70.2 70.2 0 0 1 47.61-18.765c38.453 0 69.75 31.297 69.75 69.75a22.23 22.23 0 0 1-44.437 0 25.425 25.425 0 0 0-50.738-1.778l-.157 2.385.09 74.7a22.253 22.253 0 0 1-22.208 22.23zm-47.542-134.19c20.16 0 36.562 16.403 36.562 36.563v75.42a10.98 10.98 0 1 0 21.915 0l-.09-83.093h.923a36.742 36.742 0 0 1 35.82-28.867c20.205 0 36.653 16.447 36.653 36.652a10.98 10.98 0 0 0 21.937 0c0-32.265-26.235-58.5-58.5-58.5-16.448 0-32.288 7.02-43.447 19.305l-4.163 4.545-4.162-4.612a58.635 58.635 0 0 0-43.336-19.283 58.635 58.635 0 0 0-58.657 58.5 10.957 10.957 0 0 0 21.915 0 36.675 36.675 0 0 1 36.63-36.63z"
      fill="#47CFE5"></path>
    <path
      d="M389.87 621.283h-66.33a47.79 47.79 0 0 1-35.032-15.593l-23.715-25.695a28.575 28.575 0 0 0-20.88-9.293H91.048a6.525 6.525 0 1 1 0-13.095h152.887c11.453 0 22.567 4.928 30.488 13.523l23.715 25.718c6.66 7.2 15.93 11.34 25.425 11.34h66.33a6.525 6.525 0 1 1-.023 13.095"
      fill="#0099BC"></path>
  </symbol>
  <symbol id="header-icon-douga" viewBox="0 0 1024 1024">
    <path
      d="M273.408 166.912h477.696c58.368 0 105.984 47.616 105.984 105.984v477.696c0 58.368-47.616 105.984-105.984 105.984H273.408c-58.368 0-105.984-47.616-105.984-105.984V273.408c-.512-58.368 47.616-106.496 105.984-106.496z"
      fill="#7B78EB"></path>
    <path
      d="M512 525.312v98.816c33.28-14.848 72.704.512 87.552 33.792 14.848 33.28-.512 72.704-33.792 87.552-16.896 7.68-35.84 7.68-53.248 0v111.616H273.408c-58.368 0-105.984-47.616-105.984-105.984V512H304.64c-21.504 19.456-24.064 53.248-4.608 74.752 19.456 21.504 53.248 24.064 74.752 4.608 21.504-18.944 24.064-53.248 4.608-74.752L374.784 512H512v-40.96c-4.096.512-9.216.512-13.312 0-51.2 0-86.016-47.616-86.016-105.984s20.992-108.032 86.016-108.032H512v-90.112h238.592c58.368 0 105.984 47.616 105.984 105.984V524.8H735.744c20.992-23.552 19.456-59.392-3.584-80.896-23.552-20.992-59.392-19.456-80.896 3.584-19.968 21.504-19.968 55.296 0 76.8H512z"
      fill="#9796ED"></path>
    <path
      d="M512 525.312v98.816l13.312-4.096c35.84-7.68 72.704 15.872 79.872 52.224 7.68 35.84-18.432 72.192-54.272 78.848-4.096 1.024-8.704 1.024-13.312 1.024-9.216 0-16.384-3.072-25.088-6.144V857.6h-14.336V724.992l18.432 8.192c27.136 11.776 58.368-.512 70.144-27.648 11.776-27.136-.512-58.368-27.648-70.144-13.312-5.632-28.672-5.632-42.496 0l-18.432 8.192v-117.76h-98.304c14.848 33.28-.512 72.704-33.792 87.552-33.28 14.848-72.704-.512-87.552-33.792-7.68-16.896-7.68-35.84 0-53.248H166.912V512h137.216c-21.504 19.456-24.064 53.248-4.608 74.752 19.456 21.504 53.248 24.064 74.752 4.608 21.504-19.456 24.064-53.248 4.608-74.752L374.272 512H512v-39.936h-13.312c-51.2 0-86.016-47.104-86.016-105.984s20.992-109.568 86.016-109.568H512v-89.6h13.312v105.984h-26.624c-49.664 0-73.216 33.28-73.216 94.208 0 53.248 30.72 92.672 73.216 92.672 3.584.512 7.68.512 11.264 0l15.36-2.048V512h102.912c-13.824-35.84 4.096-76.8 40.448-90.624 35.84-13.824 76.8 4.096 90.624 40.448 6.144 15.872 6.144 33.792 0 50.176h97.792v13.312H736.256c20.992-23.552 19.456-59.392-3.584-80.896-23.552-20.992-59.392-19.456-80.896 3.584-19.968 21.504-19.968 55.296 0 76.8H512z"
      fill="#6A68C6"></path>
    <path
      d="M444.928 693.248c-23.04 13.312-52.224 5.12-65.024-17.408-4.096-7.68-6.144-15.36-6.144-24.064V392.192c0-26.624 20.992-47.616 47.616-47.616 8.704 0 16.896 2.048 24.576 6.656L667.648 483.84c23.04 13.312 30.208 42.496 16.896 65.024-4.096 6.656-10.24 12.8-16.896 16.896"
      fill="#FDDE80"></path>
  </symbol>
  <symbol id="header-icon-game" viewBox="0 0 1024 1024">
    <path
      d="M256.512 166.144h510.976q90.112 0 90.112 90.112v510.976q0 90.112-90.112 90.112H256.512q-90.112 0-90.112-90.112V256.256q0-90.112 90.112-90.112Z"
      fill="#58D598"></path>
    <path
      d="M307.2 325.632h136.448V462.08H307.2zm272.896 0h136.448V462.08H580.096zM443.648 462.336v75.776h-64.256v204.544h59.392V674.56h146.432v68.096h59.136V538.112h-64.256v-75.776H443.648z"
      fill="#17AD8A"></path>
  </symbol>
  <symbol id="header-icon-kichiku" viewBox="0 0 1024 1024">
    <path
      d="M918.784 510.208a187.904 187.904 0 0 0-88.832-159.488 156.416 156.416 0 0 0 1.792-22.016A150.784 150.784 0 0 0 620.8 190.208a151.04 151.04 0 0 0-216.32 0 150.784 150.784 0 0 0-210.944 138.496 156.416 156.416 0 0 0 1.792 22.016 187.648 187.648 0 0 0-13.824 309.504v1.536a215.296 215.296 0 0 0 332.8 179.2 215.04 215.04 0 0 0 332.8-179.2v-2.56a187.904 187.904 0 0 0 71.68-148.992z"
      fill="#FC6B8A"></path>
    <path
      d="M680.704 479.744A150.528 150.528 0 0 1 572.672 435.2a150.016 150.016 0 0 1-120.064 0 150.528 150.528 0 0 1-108.032 45.824h-11.264v167.168A166.4 166.4 0 0 0 499.2 814.08h33.536a166.4 166.4 0 0 0 165.888-165.888V478.464a137.216 137.216 0 0 1-17.92 1.28z"
      fill="#FFF"></path>
    <path d="M476.928 651.264a33.536 33.536 0 1 0 67.072 0 33.536 33.536 0 1 0-67.072 0Z" fill="#E2006C"></path>
    <path
      d="M635.904 554.496H614.4v-21.504a12.032 12.032 0 0 0-11.776-11.776h-4.864a12.032 12.032 0 0 0-11.776 11.776v21.504h-21.248a11.776 11.776 0 0 0-11.776 11.52v5.12a11.776 11.776 0 0 0 11.776 11.52h21.248v21.504a12.032 12.032 0 0 0 11.776 11.776h4.864A12.032 12.032 0 0 0 614.4 604.16v-21.504h21.248a11.776 11.776 0 0 0 11.776-11.52v-5.12a11.776 11.776 0 0 0-11.52-11.52zm-179.968 0H435.2v-21.504a12.032 12.032 0 0 0-11.776-11.776h-4.864a12.032 12.032 0 0 0-11.776 11.776v21.504H384a11.776 11.776 0 0 0-11.776 11.52v5.12A11.776 11.776 0 0 0 384 582.656h21.248v21.504a12.032 12.032 0 0 0 11.776 11.776h4.864A12.032 12.032 0 0 0 435.2 604.16v-21.504h21.248a11.52 11.52 0 0 0 11.776-11.52v-5.12a11.52 11.52 0 0 0-12.288-11.52z"
      fill="#FF5C7A"></path>
    <path
      d="M600.32 651.008a12.288 12.288 0 0 0-12.288 12.544c0 34.048-34.816 61.696-76.8 61.696s-76.8-27.648-76.8-61.696a12.544 12.544 0 1 0-25.6 0c0 47.616 45.824 86.528 102.4 86.528s102.4-38.912 102.4-86.528a12.544 12.544 0 0 0-13.312-12.544z"
      fill="#EB53A8"></path>
  </symbol>
  <symbol id="header-icon-music" viewBox="0 0 1024 1024">
    <path
      d="M881.92 460.8a335.36 335.36 0 0 0-334.336-335.104h-73.216A335.616 335.616 0 0 0 139.776 460.8v313.6a18.688 18.688 0 0 0 18.432 18.688h41.984c13.568 46.336 37.888 80.384 88.576 80.384h98.304a37.376 37.376 0 0 0 37.376-36.864l1.28-284.672a36.864 36.864 0 0 0-37.12-37.12h-99.84a111.616 111.616 0 0 0-51.2 12.8V454.4a242.432 242.432 0 0 1 241.664-241.664h67.328A242.176 242.176 0 0 1 787.968 454.4v74.496a110.592 110.592 0 0 0-54.272-14.08h-99.84a36.864 36.864 0 0 0-37.12 37.12v284.672a37.376 37.376 0 0 0 37.376 36.864h98.304c51.2 0 75.008-34.048 88.576-80.384h41.984a18.688 18.688 0 0 0 18.432-18.688z"
      fill="#45C7DD"></path>
    <path
      d="m646.1859999999999 792.7090000000001.274-196.096q.046-32.512 32.558-32.466l1.024.001q32.512.045 32.466 32.557l-.274 196.096q-.045 32.512-32.557 32.467l-1.024-.002q-32.512-.045-32.467-32.557ZM307.26800000000003 792.7349999999999l.274-196.096q.045-32.512 32.557-32.467l1.024.002q32.512.045 32.467 32.557l-.274 196.096q-.045 32.512-32.557 32.466l-1.024-.001q-32.512-.045-32.467-32.557Z"
      fill="#FF5C7A"></path>
  </symbol>
  <symbol id="header-icon-dance" viewBox="0 0 1024 1024">
    <path
      d="M956.672 513.792a476.416 476.416 0 0 0-890.368 0L512 727.296l-95.232 45.568a117.76 117.76 0 0 0 192.256 0L512 727.04z"
      fill="#FC6B8A"></path>
    <path d="m512 727.296 208.64-99.84a222.976 222.976 0 0 0-416.768 0z" fill="#FFF"></path>
    <path d="m405.453 751.54 541.184-258.586 14.029 29.312-541.184 258.61z" fill="#FF5C7A"></path>
    <path
      d="m666.624 545.792-18.688-15.36-112.64 135.424L575.488 492.8l-23.552-5.632-40.192 172.544-40.448-172.544-23.808 5.632 40.704 173.056-112.896-135.424-18.688 15.36 111.616 134.144-391.68-186.88L62.72 522.24 603.904 780.8l14.08-29.44-87.552-41.728 136.192-163.84z"
      fill="#F14767"></path>
  </symbol>
  <symbol id="header-icon-cinephile" viewBox="0 0 1024 1024">
    <path
      d="M226.816 201.728h571.136q79.616 0 79.616 79.616v458.24q0 79.616-79.616 79.616H226.816q-79.616 0-79.616-79.616v-458.24q0-79.616 79.616-79.616Z"
      fill="#9796ED"></path>
    <path
      d="M222.976 269.312h77.056v57.856h-77.056zm167.168 0H467.2v57.856h-77.056zm167.168 0h77.056v57.856h-77.056zm167.168 0h77.056v57.856H724.48zM222.976 693.76h77.056v57.856h-77.056zm167.168 0H467.2v57.856h-77.056zm167.168 0h77.056v57.856h-77.056zM147.2 375.296h730.368v270.08H147.2z"
      fill="#7B78EA"></path>
    <path
      d="m544.721 506.356 2.535-2.535q23.351-23.351 46.703 0l199.664 199.665q23.351 23.351 0 46.703l-2.534 2.534q-23.352 23.351-46.703 0L544.72 553.059q-23.351-23.352 0-46.703Z"
      fill="#FFD043"></path>
    <path
      d="M708.352 418.816h-25.6v-24.32a13.568 13.568 0 0 0-13.568-13.568H665.6a13.312 13.312 0 0 0-13.312 13.568v24.32h-25.6a13.568 13.568 0 0 0-13.568 13.568v5.632a13.568 13.568 0 0 0 13.568 13.568h25.6v24.32a13.312 13.312 0 0 0 13.312 13.568h5.632a13.568 13.568 0 0 0 13.568-13.568v-24.32h25.6a13.312 13.312 0 0 0 13.312-13.568v-5.632a13.312 13.312 0 0 0-15.36-13.568zm-190.464 0h-25.6v-24.32a13.312 13.312 0 0 0-13.312-13.568h-5.632a13.568 13.568 0 0 0-13.568 13.568v24.32H435.2a13.312 13.312 0 0 0-13.312 13.568v5.632a13.312 13.312 0 0 0 13.312 13.568h25.6v24.32a13.568 13.568 0 0 0 13.568 13.568H480a13.312 13.312 0 0 0 13.312-13.568v-24.32h25.6a13.312 13.312 0 0 0 13.312-13.568v-5.632a13.312 13.312 0 0 0-14.336-13.568zm-24.32 153.344h-18.432v-18.432a10.24 10.24 0 0 0-10.24-10.24H460.8a10.24 10.24 0 0 0-10.24 10.24v18.432h-18.432a10.24 10.24 0 0 0-10.24 10.24v4.352a10.24 10.24 0 0 0 10.24 10.24h18.432V614.4a10.24 10.24 0 0 0 10.24 10.24h4.352a10.24 10.24 0 0 0 10.24-10.24v-18.432h18.432a10.24 10.24 0 0 0 10.24-10.24v-4.352a10.24 10.24 0 0 0-10.496-9.216z"
      fill="#FFD778"></path>
  </symbol>
  <symbol id="header-icon-ent" viewBox="0 0 1024 1024">
    <path
      d="m570.647 415.186 30.592 30.592q36.204 36.204 0 72.408l-360.59 360.59q-36.204 36.204-72.408 0l-30.593-30.592q-36.203-36.204 0-72.407l360.59-360.591q36.205-36.204 72.409 0Z"
      fill="#FF8693"></path>
    <path
      d="m369.92 543.744 137.472-137.472a38.912 38.912 0 0 1 54.528 0l48.384 48.64a38.4 38.4 0 0 1 0 54.528L472.32 647.424z"
      fill="#FC6376"></path>
    <path
      d="m298.989 643.872 72.601 72.576q12.855 12.85.004 25.705l-1.628 1.63q-12.85 12.854-25.705.004l-72.602-72.576q-12.854-12.85-.004-25.705l1.629-1.63q12.85-12.854 25.705-.004Z"
      fill="#FFA9B1"></path>
    <path
      d="M737.024 547.584a99.328 99.328 0 0 1 62.72-62.72l51.2-13.568A27.136 27.136 0 0 0 864 421.632L826.624 384a98.816 98.816 0 0 1-22.784-85.76l16.896-63.232c7.168-27.136-8.96-43.52-36.096-36.096l-63.232 16.896a98.816 98.816 0 0 1-85.76-23.04l-37.376-36.864a27.136 27.136 0 0 0-49.408 13.312l-13.824 51.2a97.792 97.792 0 0 1-62.464 62.72l-51.2 13.824a27.136 27.136 0 0 0-13.312 49.408L445.44 384a97.536 97.536 0 0 1 23.04 85.504l-16.896 63.232c-7.424 27.392 8.96 43.52 36.096 36.352l63.232-16.896a97.792 97.792 0 0 1 85.76 22.784l37.376 37.376a26.88 26.88 0 0 0 49.408-13.312z"
      fill="#FDDE80"></path>
    <path
      d="m886.272 417.536-74.752-75.008 30.464-114.432a41.216 41.216 0 0 0-8.704-41.472 41.728 41.728 0 0 0-41.472-7.424l-114.432 30.72-74.752-76.032a41.728 41.728 0 0 0-39.424-13.312 41.216 41.216 0 0 0-28.416 31.488l-27.392 102.4L404.48 281.6a42.24 42.24 0 0 0-31.744 28.16 42.24 42.24 0 0 0 13.312 40.448l74.752 75.008-30.72 114.432a41.728 41.728 0 0 0 8.96 41.472 37.888 37.888 0 0 0 27.392 10.752 56.832 56.832 0 0 0 14.08-2.048l114.432-30.72 74.752 75.008a45.824 45.824 0 0 0 31.232 14.336 34.304 34.304 0 0 0 8.96 0 41.216 41.216 0 0 0 28.416-31.488l27.392-102.4 102.4-27.392a41.984 41.984 0 0 0 31.488-28.416 40.96 40.96 0 0 0-13.312-41.216zm-84.736-203.52h5.12a16.896 16.896 0 0 1 0 5.12l-25.6 93.696-72.96-73.728zm-32 139.776-34.56 128-128 34.56-102.4-102.4 34.56-128 128-34.56zm-199.424-192c0-2.56 1.792-4.096 1.792-4.608a9.984 9.984 0 0 1 4.096 3.072l59.648 59.648-87.296 23.296zM412.416 323.84 409.6 320a12.8 12.8 0 0 1 4.864-2.048l81.152-21.76L472.064 384zm58.368 230.4a18.944 18.944 0 0 1-5.12 0 17.92 17.92 0 0 1 0-5.12l25.6-93.696L563.2 528.64zm230.4 51.2c0 2.816-1.536 4.096-1.536 4.864a20.992 20.992 0 0 1-4.352-3.328l-59.392-59.392 87.296-23.552zm156.16-156.16-81.152 21.76L799.488 384l59.392 59.392a40.96 40.96 0 0 1 3.328 3.84 12.8 12.8 0 0 1-4.096 2.56z"
      fill="#FCC029"></path>
  </symbol>
  <symbol id="header-icon-knowledge" viewBox="0 0 1024 1024">
    <path
      d="M492.27 147.73A255.343 255.343 0 0 1 627.2 620.261v51.2a37.547 37.547 0 0 1-25.6 34.134H379.733a44.655 44.655 0 0 1-25.6-34.134v-51.2A256.649 256.649 0 0 1 492.271 147.73z"
      fill="#FFA200"></path>
    <path
      d="M550.4 534.93v-76.8h51.2c46.61 0 51.2-26.787 51.2-42.668v-128c0-23.116-17.203-42.666-51.2-42.666H388.267c-42.104 0-59.734 21.111-59.734 42.666v76.8h102.4v-68.266H550.4v119.466h-51.2c-60.501-.563-76.8 24.406-76.8 42.667v76.8h128zm-62.669 24.532a59.733 59.733 0 1 1-59.733 59.734 59.733 59.733 0 0 1 59.733-59.734z"
      fill="#FFF0D3"></path>
    <path d="M354.133 739.738H627.2v8.533a128 128 0 0 1-128 128h-17.067a128 128 0 0 1-128-128v-8.533z" fill="#5FB5EC">
    </path>
    <path
      d="M746.667 210.662h119.466a17.067 17.067 0 0 1 0 34.134H746.667a17.067 17.067 0 0 1 0-34.134zM806.4 150.93a17.067 17.067 0 0 1 17.067 17.067v119.466a17.067 17.067 0 0 1-34.134 0V167.996a17.067 17.067 0 0 1 17.067-17.067zM157.867 662.93h119.466a17.067 17.067 0 0 1 0 34.132H157.867a17.067 17.067 0 0 1 0-34.133zm59.733-59.734a17.067 17.067 0 0 1 17.067 17.066V739.73a17.067 17.067 0 0 1-34.134 0V620.262a17.067 17.067 0 0 1 17.067-17.066z"
      fill="#FFE074"></path>
    <path d="M200.533 662.938h34.134v34.133h-34.134zM789.333 210.67h34.134v34.134h-34.134z" fill="#FFE074"></path>
  </symbol>
  <symbol id="header-icon-tech" viewBox="0 0 1024 1024">
    <path d="M510.208 683.264H396.032l-50.688 209.408h329.472l-50.688-209.408h-113.92z" fill="#FFD778"></path>
    <path
      d="M535.552 150.528v-28.16a25.6 25.6 0 1 0-51.2 0v28.16A271.872 271.872 0 0 0 239.36 420.096v97.28a25.6 25.6 0 0 0 26.88 26.88h487.936a25.6 25.6 0 0 0 25.6-26.88v-97.28a271.616 271.616 0 0 0-244.224-269.568z"
      fill="#48CFE5"></path>
    <path
      d="M228.864 464.64h562.432q103.168 0 103.168 103.168v15.36q0 103.168-103.168 103.168H228.864q-103.168 0-103.168-103.168v-15.36q0-103.168 103.168-103.168Z"
      fill="#2CBAE5"></path>
    <path
      d="M742.4 537.6a37.632 37.632 0 1 0 37.632 37.632A37.376 37.376 0 0 0 742.4 537.6zm-465.664 0a37.632 37.632 0 1 0 37.632 37.632 37.632 37.632 0 0 0-37.632-37.632z"
      fill="#FFD778"></path>
  </symbol>
  <symbol id="header-icon-information" viewBox="0 0 1024 1024">
    <path
      d="M760.686 768a21.943 21.943 0 0 0 19.836 21.84l2.107.103a21.943 21.943 0 0 0 21.84-19.836l.102-2.107V321.829h29.258a58.514 58.514 0 0 1 58.514 58.514V819.2a58.514 58.514 0 0 1-58.514 58.514H190.17a58.514 58.514 0 0 1-58.514-58.514V204.8a58.514 58.514 0 0 1 58.514-58.514h512a58.514 58.514 0 0 1 58.515 58.514V768z"
      fill="#7DD3E0"></path>
    <path
      d="M248.686 234.057h394.971q29.257 0 29.257 29.257V526.63q0 29.257-29.257 29.257H248.686q-29.257 0-29.257-29.257V263.314q0-29.257 29.257-29.257Z"
      fill="#3DA9D3"></path>
    <path
      d="m404.773 300.515 129.462 80.925a15.945 15.945 0 0 1 0 27.063l-129.462 80.925a15.945 15.945 0 0 1-24.43-13.531v-161.85a15.945 15.945 0 0 1 24.43-13.532z"
      fill="#FFD469"></path>
    <path
      d="M248.686 614.4h394.971q29.257 0 29.257 29.257t-29.257 29.257H248.686q-29.257 0-29.257-29.257t29.257-29.257ZM248.686 731.429h219.428q29.257 0 29.257 29.257t-29.257 29.257H248.686q-29.257 0-29.257-29.257t29.257-29.257Z"
      fill="#3DA9D3"></path>
  </symbol>
  <symbol id="header-icon-food" viewBox="0 0 1024 1024">
    <path
      d="M116.78099999999999 503.883a75.294 75.294 0 1 0 150.588 0 75.294 75.294 0 1 0-150.588 0ZM267.36899999999997 411.211a75.294 75.294 0 1 0 150.589 0 75.294 75.294 0 1 0-150.589 0Z"
      fill="#FA942D"></path>
    <path d="M209.453 480.723a75.294 75.294 0 1 0 150.588 0 75.294 75.294 0 1 0-150.588 0Z" fill="#FE5D79"></path>
    <path d="M638.042 532.841a127.428 127.428 0 1 0 254.856 0 127.428 127.428 0 1 0-254.856 0Z" fill="#FA942D"></path>
    <path d="M499.05 457.547a133.21 133.21 0 1 0 266.42 0 133.21 133.21 0 1 0-266.42 0Z" fill="#FA942D"></path>
    <path d="M522.21 556.017a150.588 150.588 0 1 0 301.176 0 150.588 150.588 0 1 0-301.176 0Z" fill="#FE5D79"></path>
    <path
      d="M932.292 474.925a28.762 28.762 0 0 1 28.747 28.763l-.045 1.355-.09 1.355c-14.306 150.92-130.606 272.866-280.742 299.189l20.179 80.745a23.16 23.16 0 0 1-22.468 28.778H343.37a23.16 23.16 0 0 1-22.467-28.778l20.178-80.745C192.813 779.595 77.552 660.329 60.928 512.015l-.557-5.376a28.958 28.958 0 0 1 28.822-31.714h843.084z"
      fill="#FDDC7A"></path>
    <path
      d="M442.549 196.924h136.147c21.263 0 39.8 14.457 44.95 35.087l60.732 242.914H336.866l60.732-242.899a46.336 46.336 0 0 1 44.95-35.102z"
      fill="#F6C338"></path>
    <path
      d="M688.038 192.904c9.442-30.178 28.386-29.41 34.68-47.586 7.063-20.45 9.367-45.719 6.927-75.822 16.851 17.936 25.977 37.015 30.946 62.284 4.894 24.937-9.126 44.182-29.063 74.48-19.923 30.314-8.81 67.615 0 94.916-16.851-17.92-59.904-55.777-43.475-108.272zm-404.676-38.656c11.324-37.708 34.063-36.774 41.607-59.483C333.463 69.21 336.233 37.632 333.282 0c20.239 22.408 31.202 46.26 37.165 77.854 5.873 31.172-10.948 55.22-34.876 93.109-23.944 37.873-10.602 84.48 0 118.633-20.24-22.422-71.936-69.722-52.21-135.348z"
      fill="#C6D2E1"></path>
    <path
      d="M510.63 706.605a92.672 92.672 0 0 1 92.672 92.672V915.11H417.958V799.277a92.672 92.672 0 0 1 92.672-92.672z"
      fill="#F5BC20"></path>
  </symbol>
  <symbol id="header-icon-life" viewBox="0 0 1024 1024">
    <path
      d="M881.408 664.064V504.32a168.192 168.192 0 0 0-128-162.56l-7.936-1.792v144.896a12.288 12.288 0 0 1-14.592 11.776 170.752 170.752 0 0 0-30.464-2.816H561.664v-27.648a37.632 37.632 0 0 1 11.776-27.648 175.872 175.872 0 0 0 57.856-135.68A179.2 179.2 0 0 0 460.8 132.352 175.872 175.872 0 0 0 279.808 308.48V409.6h32.256a225.536 225.536 0 0 0 15.872 19.2 36.608 36.608 0 0 1 9.472 25.6v42.496A193.792 193.792 0 0 0 179.2 712.96a197.12 197.12 0 0 0 197.12 166.656h325.12a148.48 148.48 0 0 0 45.568-6.144 217.088 217.088 0 0 0 64.256-31.744 176.896 176.896 0 0 0 18.176-15.616l4.608-4.352a156.16 156.16 0 0 0 47.36-111.872v-35.84c.512-3.072.256-6.656 0-9.984z"
      fill="#FFD778"></path>
    <path
      d="M468.736 238.592a40.192 40.192 0 1 0 40.192 40.192 40.192 40.192 0 0 0-40.192-40.192zm-145.152 124.16H217.6a34.816 34.816 0 1 0 0 69.376h106.24a34.816 34.816 0 1 0 0-69.376z"
      fill="#FB813A"></path>
  </symbol>
  <symbol id="header-icon-car" viewBox="0 0 1024 1024">
    <path
      d="M210.688 588.8h25.6a51.2 51.2 0 0 1 51.2 45.568l14.08 128A51.2 51.2 0 0 1 256 819.2h-30.976a51.2 51.2 0 0 1-51.2-45.568l-14.08-128A51.2 51.2 0 0 1 204.8 588.8zm577.536 0h25.6a51.2 51.2 0 0 1 51.2 51.2 41.984 41.984 0 0 1 0 5.632l-14.08 128a51.2 51.2 0 0 1-51.2 45.568h-25.6a51.2 51.2 0 0 1-51.2-51.2 41.984 41.984 0 0 1 0-5.632l14.08-128a51.2 51.2 0 0 1 51.2-45.568zm118.272-195.84a38.656 38.656 0 0 1-25.6 48.128l-25.6 7.424a38.4 38.4 0 0 1-22.528-73.472l25.6-7.424a38.144 38.144 0 0 1 48.128 25.344zm-691.2 29.952a38.4 38.4 0 0 1-47.872 25.6l-25.6-7.424a38.656 38.656 0 0 1-25.6-48.128 38.144 38.144 0 0 1 47.872-25.6l25.6 7.424a38.4 38.4 0 0 1 25.6 48.128z"
      fill="#23ADE5"></path>
    <path
      d="M292.608 201.216A1109.76 1109.76 0 0 1 512 179.2a1165.568 1165.568 0 0 1 224 22.016 51.2 51.2 0 0 1 38.144 32L870.4 486.4v230.4a25.6 25.6 0 0 1-25.6 25.6H179.2a25.6 25.6 0 0 1-25.6-25.6V486.4L256 232.704a51.2 51.2 0 0 1 36.608-31.488z"
      fill="#48CFE5"></path>
    <path
      d="M230.4 512h102.4q25.6 0 25.6 25.6v25.6q0 25.6-25.6 25.6H230.4q-25.6 0-25.6-25.6v-25.6q0-25.6 25.6-25.6ZM691.2 512h102.4q25.6 0 25.6 25.6v25.6q0 25.6-25.6 25.6H691.2q-25.6 0-25.6-25.6v-25.6q0-25.6 25.6-25.6Z"
      fill="#FFF"></path>
    <path
      d="M327.68 270.848A1000.96 1000.96 0 0 1 499.712 256a1429.248 1429.248 0 0 1 196.864 15.36 25.6 25.6 0 0 1 20.992 18.176l39.68 134.656a25.6 25.6 0 0 1-17.408 31.744 24.064 24.064 0 0 1-9.472 0q-125.184-12.032-230.4-12.032a1894.4 1894.4 0 0 0-204.8 11.264 25.6 25.6 0 0 1-28.16-22.784 25.6 25.6 0 0 1 0-9.984L307.2 288.768a25.6 25.6 0 0 1 20.48-17.92z"
      fill="#FDDE80"></path>
    <path
      d="M614.4 358.4a102.4 102.4 0 0 0-100.864 86.784h51.2a51.2 51.2 0 0 1 99.072 5.12l51.2 4.352A102.4 102.4 0 0 0 614.4 358.4z"
      fill="#23ADE5"></path>
  </symbol>
  <symbol id="header-icon-fashion" viewBox="0 0 1024 1024">
    <path
      d="M691.2 204.8a44.032 44.032 0 0 1 29.952 34.048 117.76 117.76 0 0 1-13.056 76.8s-19.2 29.952-24.32 39.936a235.008 235.008 0 0 0-25.6 107.008v40.704H365.312v-39.424a235.008 235.008 0 0 0-25.6-107.008c-5.12-9.984-24.32-39.936-24.32-39.936a117.76 117.76 0 0 1-13.056-76.8 44.544 44.544 0 0 1 34.56-35.328v-57.088a29.952 29.952 0 0 1 27.136-31.744 29.952 29.952 0 0 1 27.648 31.744v73.728A237.056 237.056 0 0 0 512 253.952a241.408 241.408 0 0 0 125.184-35.072v-71.168a27.136 27.136 0 1 1 53.76 0z"
      fill="#FF6A9B"></path>
    <path
      d="M658.432 487.936h-293.12L204.8 780.288a36.352 36.352 0 0 0 10.24 46.592 492.288 492.288 0 0 0 595.456 0 36.608 36.608 0 0 0 8.704-47.36z"
      fill="#FF9DC6"></path>
    <path
      d="M409.6 537.6a9.984 9.984 0 0 0-13.568 4.608l-124.16 250.624a10.496 10.496 0 0 0 4.608 13.568 14.848 14.848 0 0 0 4.608 0 9.984 9.984 0 0 0 8.96-5.632l124.16-250.88A10.24 10.24 0 0 0 409.6 537.6zm46.336 105.472a9.984 9.984 0 0 0-12.032 7.424l-40.448 170.752a10.24 10.24 0 0 0 7.424 12.288h2.304a9.728 9.728 0 0 0 9.728-7.936l40.448-170.752a9.984 9.984 0 0 0-7.424-11.776zm294.912 148.736-124.16-250.624A9.984 9.984 0 0 0 614.4 537.6a10.24 10.24 0 0 0-4.608 13.312l124.16 250.88a9.984 9.984 0 0 0 8.96 5.632 14.848 14.848 0 0 0 4.608 0 10.496 10.496 0 0 0 3.328-15.616zM579.84 650.496a9.984 9.984 0 0 0-19.456 4.608l40.448 170.752a9.728 9.728 0 0 0 9.728 7.936h2.304a10.24 10.24 0 0 0 7.424-12.288z"
      fill="#FF6A9B"></path>
  </symbol>
  <symbol id="header-icon-sports" viewBox="0 0 1024 1024">
    <path
      d="m497.894 517.862 23.885 29.261a58.573 58.573 0 0 1-5.606 80.051L241.946 880.742a47.718 47.718 0 0 1-65.613-.768 49.818 49.818 0 0 1-4.301-66.816l108.57-136.37 126.105-158.362a58.573 58.573 0 0 1 91.187-.564z"
      fill="#1BAD8B"></path>
    <path
      d="M698.931 153.6a117.146 117.146 0 0 1 11.418 233.728l60.416 45.9c4.352 3.329 10.163 3.918 15.104 1.588l73.625-34.637a46.285 46.285 0 0 1 59.11 17.587 44.34 44.34 0 0 1-11.929 59.316l-125.952 90.265a58.573 58.573 0 0 1-65.945 1.562l-66.048-42.752-44.135 47.77 70.605 83.327a58.012 58.012 0 0 1 4.608 6.196l1.946 3.302a58.573 58.573 0 0 1-22.861 79.616L466.79 852.71a49.382 49.382 0 0 1-65.74-16.998 52.096 52.096 0 0 1 11.904-68.582l105.548-83.175-106.29-68.3-1.537-1.025a59.75 59.75 0 0 1-.896-.614l-13.824-7.168a58.573 58.573 0 0 1-23.296-82.278l71.68-118.887-30.72-13.824a14.643 14.643 0 0 0-14.336 1.331l-80.486 55.604a48.87 48.87 0 0 1-62.669-5.965 39.347 39.347 0 0 1 1.792-56.858l128.282-115.149a58.573 58.573 0 0 1 57.446-12.032l143.54 47.258A117.146 117.146 0 0 1 698.93 153.6z"
      fill="#57D59A"></path>
  </symbol>
  <symbol id="header-icon-animal" viewBox="0 0 1024 1024">
    <path
      d="M517.376 465.152a144.924 144.924 0 0 1 137.529 99.214c1.28 3.926 2.275 7.85 2.901 11.805a132.267 132.267 0 0 1-14.279 263.765H380.473a132.267 132.267 0 0 1-14.25-263.794 74.044 74.044 0 0 1 2.872-11.776 144.924 144.924 0 0 1 137.529-99.214h10.752zm-96.683-47.047c50.262-3.783 85.618-59.165 79.047-123.733-6.599-64.57-52.65-113.892-102.912-110.109-50.232 3.755-85.617 59.165-79.018 123.733 6.599 64.57 52.65 113.864 102.912 110.08zm182.614 0c50.233 3.755 96.284-45.511 102.883-110.109 6.6-64.568-28.786-119.978-79.018-123.733-50.262-3.783-96.313 45.511-102.912 110.08-6.6 64.569 28.785 119.979 79.018 123.733zM717.426 551.14c39.082 21.816 96.91-4.267 129.138-58.226 32.256-53.96 26.709-115.37-12.374-137.188-39.11-21.817-96.938 4.267-129.166 58.226-32.256 53.96-26.71 115.37 12.402 137.188zm-410.852 0c39.111-21.817 44.658-83.229 12.402-137.188-32.228-53.96-90.055-80.043-129.138-58.226-39.11 21.817-44.658 83.229-12.43 137.188 32.256 53.959 90.084 80.042 129.166 58.226z"
      fill="#FB7299"></path>
    <path
      d="M621.511 113.778c76.231-.939 138.468 74.012 149.504 173.34 37.746-13.312 75.861-12.914 107.293 4.324 70.712 38.77 80.753 147.968 22.442 243.91a272.327 272.327 0 0 1-71.11 78.337c9.158 22.87 14.221 47.843 14.221 73.984v23.438a199.111 199.111 0 0 1-199.11 199.111H379.25a199.111 199.111 0 0 1-199.111-199.11v-23.44c0-26.168 5.063-51.114 14.222-74.012a272.1 272.1 0 0 1-71.111-78.307c-58.311-95.943-48.27-205.141 22.442-243.911 31.432-17.238 69.547-17.636 107.321-4.352 11.008-99.3 73.245-174.25 149.476-173.312 42.41.54 81.152 24.462 109.511 62.777 28.36-38.287 67.1-62.237 109.511-62.777z"
      fill="#FFD7E7"></path>
    <path
      d="M512 465.152a141.198 141.198 0 0 1 134.741 98.958l.086.256c1.905 6.087 3.015 12.231 3.356 18.29a132.267 132.267 0 0 1-9.728 264.164h-256.91a132.267 132.267 0 0 1-9.671-264.192l-.2 4.58a76.853 76.853 0 0 1 3.5-22.842l.085-.284A141.198 141.198 0 0 1 512 465.18zm-91.307-47.047c50.262-3.783 85.618-59.165 79.047-123.733-6.599-64.57-52.65-113.892-102.912-110.109-50.232 3.755-85.617 59.165-79.018 123.733 6.599 64.57 52.65 113.864 102.912 110.08zm182.614 0c50.233 3.755 96.284-45.511 102.883-110.109 6.6-64.568-28.786-119.978-79.018-123.733-50.262-3.783-96.313 45.511-102.912 110.08-6.6 64.569 28.785 119.979 79.018 123.733zM717.426 551.14c39.082 21.816 96.91-4.267 129.138-58.226 32.256-53.96 26.709-115.37-12.374-137.188-39.11-21.817-96.938 4.267-129.166 58.226-32.256 53.96-26.71 115.37 12.402 137.188zm-410.852 0c39.111-21.817 44.658-83.229 12.402-137.188-32.228-53.96-90.055-80.043-129.138-58.226-39.11 21.817-44.658 83.229-12.43 137.188 32.256 53.959 90.084 80.042 129.166 58.226z"
      fill="#FB7299"></path>
  </symbol>
  <symbol id="header-icon-zhishi" viewBox="0 0 1024 1024">
    <path
      d="M781.367 132.313c60.919 0 110.32 50.371 110.32 112.514V778.16c0 62.1-49.359 112.472-110.32 112.472H518.75c0-16.116-25.692-29.152-57.375-29.152S404 874.56 404 890.633H284.82c-60.918 0-110.32-50.372-110.32-112.43V244.827c0-62.143 49.36-112.514 110.32-112.514h496.547z"
      fill="#FBC92A"></path>
    <path
      d="M781.367 132.313c60.919 0 110.32 50.371 110.32 112.514v209.671c-49.485 4.894-86.062 22.022-86.062 42.399 0 20.376 36.577 37.547 86.063 42.356v34.72c0 62.143-49.36 112.515-110.32 112.515H284.82c-60.918 0-110.32-50.372-110.32-112.515V244.827c0-62.143 49.36-112.514 110.32-112.514h496.547z"
      fill="#FFEA85"></path>
    <path d="M346.625 686.487a114.75 58.345 0 1 0 229.5 0 114.75 58.345 0 1 0-229.5 0Z" fill="#FBC92A"></path>
    <path
      d="M260.563 803.136a43.031 42.188 0 1 0 86.062 0 43.031 42.188 0 1 0-86.063 0ZM490.063 803.136a71.719 42.188 0 1 0 143.437 0 71.719 42.188 0 1 0-143.438 0Z"
      fill="#F4B828"></path>
    <path
      d="M674.506 477.448a27.21 27.21 0 0 1 39.024 1.224 28.519 28.519 0 0 1-1.182 39.74 238.022 238.022 0 0 1-330.918 0 28.519 28.519 0 0 1-1.182-39.74 27.21 27.21 0 0 1 38.982-1.224 183.642 183.642 0 0 0 255.276 0zM734.792 272.923h5.19a41.766 41.766 0 0 1 41.343 42.188v56.278c0 23.288-18.478 42.188-41.344 42.188h-5.189a41.766 41.766 0 0 1-41.344-42.188v-56.278c0-23.288 18.52-42.188 41.344-42.188zm-380.995 0h5.189a41.766 41.766 0 0 1 41.344 42.188v56.278c0 23.288-18.52 42.188-41.344 42.188h-5.19a41.766 41.766 0 0 1-41.343-42.188v-56.278c0-23.288 18.478-42.188 41.344-42.188z"
      fill="#FBC92A"></path>
  </symbol>
  <symbol id="header-icon-read" viewBox="0 0 1024 1024">
    <path
      d="M778.496 142.08h-537.6a56.832 56.832 0 0 0-60.16 54.016v630.528a56.832 56.832 0 0 0 59.136 54.016h537.6a56.832 56.832 0 0 0 59.136-54.016V196.096a56.832 56.832 0 0 0-59.136-54.016z"
      fill="#54E2E2"></path>
    <path
      d="M298.496 679.168h421.376a25.6 25.6 0 0 0 0-52.736H298.496a25.6 25.6 0 1 0 0 52.736zm421.376 53.76H298.496a25.6 25.6 0 1 0 0 52.736h421.376a25.6 25.6 0 0 0 0-52.736zM352.256 237.056h314.112q80.128 0 80.128 80.128v154.368q0 80.128-80.128 80.128H352.256q-80.128 0-80.128-80.128V317.184q0-80.128 80.128-80.128Z"
      fill="#23ADE5"></path>
    <path
      d="M355.584 361.472a49.408 49.408 0 1 0 98.816 0 49.408 49.408 0 1 0-98.816 0ZM375.552 551.936l120.832-144.384a44.544 44.544 0 0 1 68.352 0l120.832 144.384z"
      fill="#2EC3E5"></path>
  </symbol>
  <symbol id="header-icon-activit" viewBox="0 0 1024 1024">
    <path
      d="M518.656 475.904a223.488 223.488 0 0 1-23.296-75.52 366.08 366.08 0 0 1 81.408 14.592 623.104 623.104 0 0 1-58.112 60.928m-69.888-119.04c-11.52-58.112-8.704-55.296-25.6-156.928a265.984 265.984 0 0 0-78.336 46.592c51.2 104.448 60.928 165.376 92.928 290.304 51.2-5.632 211.968-40.704 226.56-130.56 8.704-64-142.336-64-215.04-49.408m37.12 267.264a263.424 263.424 0 0 0-107.52 69.632l43.52 153.6a47.872 47.872 0 0 1-92.928 23.296L216.576 473.088l-72.704-204.8c2.816-5.632 5.888-8.704 8.704-14.336l-14.592-51.2a46.08 46.08 0 0 1 32-57.856 47.616 47.616 0 0 1 58.112 34.304v2.816a334.848 334.848 0 0 1 98.816-43.52c177.152-46.592 203.264 55.04 429.824 23.296L890.368 588.8c-171.52 90.112-232.448-11.52-403.712 35.072"
      fill="#F39800"></path>
  </symbol>
  <symbol id="header-icon-musicplus" viewBox="0 0 1024 1024">
    <path d="M153.6 256h716.8q25.6 0 25.6 25.6v512q0 25.6-25.6 25.6H153.6q-25.6 0-25.6-25.6v-512q0-25.6 25.6-25.6Z"
      fill="#3DA9D3"></path>
    <path
      d="M153.6 256h153.6v563.2H153.6a25.6 25.6 0 0 1-25.6-25.6v-512a25.6 25.6 0 0 1 25.6-25.6zm716.8 0H716.8v563.2h153.6a25.6 25.6 0 0 0 25.6-25.6v-512a25.6 25.6 0 0 0-25.6-25.6z"
      fill="#7DD3E0"></path>
    <path
      d="M783.36 320h46.08q15.36 0 15.36 15.36v20.48q0 15.36-15.36 15.36h-46.08q-15.36 0-15.36-15.36v-20.48Q768 320 783.36 320ZM783.36 448h46.08q15.36 0 15.36 15.36v20.48q0 15.36-15.36 15.36h-46.08q-15.36 0-15.36-15.36v-20.48Q768 448 783.36 448ZM783.36 576h46.08q15.36 0 15.36 15.36v20.48q0 15.36-15.36 15.36h-46.08q-15.36 0-15.36-15.36v-20.48Q768 576 783.36 576ZM783.36 704h46.08q15.36 0 15.36 15.36v20.48q0 15.36-15.36 15.36h-46.08q-15.36 0-15.36-15.36v-20.48Q768 704 783.36 704Z"
      fill="#3DA9D3"></path>
    <path
      d="M576 180.736c8.78-2.611 15.898-1.92 21.35 2.074 5.479 3.993 11.008 9.83 16.64 17.459 5.607 7.654 12.544 16.256 20.762 25.856 8.243 9.574 19.456 18.509 33.69 26.777 12.236 7.68 22.963 12.954 32.204 15.77l25.959 7.86a146.846 146.846 0 0 1 23.654 9.266s17.741 9.984 25.523 20.48c8.116 10.906 14.874 19.661 16.615 30.976 1.715 11.341 1.613 21.914-.461 31.693a72.73 72.73 0 0 1-9.574 24.576c-4.276 6.58-7.86 9.933-10.752 9.933-2.868.026-5.402-1.613-7.604-5.043-2.227-3.38-3.84-9.984-4.864-19.763-1.69-15.872-6.656-27.034-14.976-33.46-8.32-6.425-21.35-9.984-39.142-10.726a96.051 96.051 0 0 1-48.922-15.616 283.047 283.047 0 0 1-34.97-26.803c-8.882-7.373-15.794-9.549-20.889-6.298-4.992 3.226-7.577 8.115-7.731 14.746l-.563 26.752-6.707 273.792-.794 35.405c.154 9.856-1.664 21.196-5.427 33.996-3.789 12.8-10.675 25.293-20.66 37.453-9.932 12.16-23.09 23.22-39.475 33.229s-36.582 17.357-60.595 22.067c-24.448 4.762-46.413 3.584-65.894-3.507-19.456-7.091-34.381-17.434-44.775-31.027-10.24-12.928-15.436-29.594-14.77-47.514.69-18.048 8.857-36.045 24.473-53.965s32.435-31.283 50.432-40.115a198.81 198.81 0 0 1 51.814-17.715 178.842 178.842 0 0 1 44.314-3.02c13.005 1.049 22.579 2.38 28.749 3.942 0 0 6.45-280.167 8.294-341.607.23-12.109 3.584-22.323 9.933-30.976 6.4-8.55 14.771-14.208 25.139-16.947zm160.922 288.18a12.8 12.8 0 0 1 .358 2.969v40.96l41.728-6.912a12.8 12.8 0 0 1 14.9 12.595v15.002a12.8 12.8 0 0 1-10.702 12.646l-45.952 7.629.026 45.363a12.8 12.8 0 0 1-9.83 12.442l-15.36 3.66a12.8 12.8 0 0 1-15.77-12.441V560.64l-41.114 6.86a12.8 12.8 0 0 1-14.899-12.62v-15.002a12.8 12.8 0 0 1 10.701-12.646l45.312-7.552v-44.134a12.8 12.8 0 0 1 9.83-12.468l15.36-3.635a12.8 12.8 0 0 1 15.412 9.472z"
      fill="#FFD469"></path>
    <path
      d="M194.56 320h46.08Q256 320 256 335.36v20.48q0 15.36-15.36 15.36h-46.08q-15.36 0-15.36-15.36v-20.48q0-15.36 15.36-15.36ZM194.56 448h46.08Q256 448 256 463.36v20.48q0 15.36-15.36 15.36h-46.08q-15.36 0-15.36-15.36v-20.48q0-15.36 15.36-15.36ZM194.56 576h46.08Q256 576 256 591.36v20.48q0 15.36-15.36 15.36h-46.08q-15.36 0-15.36-15.36v-20.48q0-15.36 15.36-15.36ZM194.56 704h46.08Q256 704 256 719.36v20.48q0 15.36-15.36 15.36h-46.08q-15.36 0-15.36-15.36v-20.48q0-15.36 15.36-15.36Z"
      fill="#3DA9D3"></path>
  </symbol>
  <symbol id="header-icon-VLOG" viewBox="0 0 1024 1024">
    <path
      d="M824.195 570.693V462.049l49.951-49.951v200.704a74.927 74.927 0 0 1-44.956 68.682L574.44 792.601l-142.636-30.795 377.582-168.31a24.976 24.976 0 0 0 14.81-22.803z"
      fill="#7C79EE"></path>
    <path
      d="M799.22 312.195h49.95q24.976 0 24.976 24.976v124.878q0 24.975-24.975 24.975H799.22q-24.976 0-24.976-24.975V337.17q0-24.976 24.976-24.976Z"
      fill="#7C79EE"></path>
    <path
      d="M249.756 162.341h449.561q99.903 0 99.903 99.903V512q0 99.902-99.903 99.902h-449.56q-99.903 0-99.903-99.902V262.244q0-99.903 99.902-99.903Z"
      fill="#9796ED"></path>
    <path
      d="M299.707 212.293H624.39q49.951 0 49.951 49.95V512q0 49.951-49.95 49.951H299.706q-49.95 0-49.95-49.951V262.244q0-49.951 49.95-49.951Z"
      fill="#FFE494"></path>
    <path
      d="m438.447 300.606 104.822 69.907a24.976 24.976 0 0 1 0 41.56l-104.822 69.881a24.976 24.976 0 0 1-38.837-20.78V321.412a24.976 24.976 0 0 1 38.837-20.805z"
      fill="#7C79EE"></path>
    <path
      d="M474.537 649.366h99.902a49.951 49.951 0 0 1 49.951 49.951v137.366a49.951 49.951 0 0 1-49.951 49.951h-99.902a49.951 49.951 0 0 1-49.952-49.951V699.317a49.951 49.951 0 0 1 49.952-49.951z"
      fill="#9796ED"></path>
  </symbol>
  <symbol id="header-icon-gaoxiao" viewBox="0 0 1024 1024">
    <path
      d="M512 131.282c-210.288 0-380.718 170.43-380.718 380.718S301.712 892.718 512 892.718 892.718 722.288 892.718 512c0-209.841-170.43-380.718-380.718-380.718zm0 675.998c-132.359 0-239.511-102.715-239.511-229.744 0-110.697 107.126-42.64 239.511-42.64 132.359 0 239.511-65.825 239.511 42.614C751.065 704.118 643.912 807.253 512 807.253z"
      fill="#FFD46A"></path>
    <path
      d="M512 807.28c-132.359 0-239.511-102.715-239.511-229.744 0-110.697 107.126-42.64 239.511-42.64 132.359 0 239.511-65.825 239.511 42.614C751.065 704.118 643.912 807.253 512 807.253z"
      fill="#FFF"></path>
    <path
      d="M511.79 667.097c-61.571 0-112.955 30.877-126.687 72.651a220.554 220.554 0 0 0 253.794 0C624.3 698 572.915 667.097 511.79 667.097zM280.839 304.102a26.256 26.256 0 0 1 32.111-13.654l2.862 1.13 127.344 60.205a26.256 26.256 0 0 1 3.36 45.608l-2.966 1.706-122.224 60.206a26.256 26.256 0 0 1-25.863-45.607l2.652-1.497 73.44-36.207-78.192-36.943a26.256 26.256 0 0 1-13.653-32.112l1.129-2.835zm463.662 0a26.256 26.256 0 0 0-32.112-13.654l-2.836 1.13-127.37 60.205a26.256 26.256 0 0 0-3.334 45.608l2.94 1.706 122.224 60.206a26.256 26.256 0 0 0 25.889-45.607l-2.678-1.497-73.413-36.207 78.191-36.943a26.256 26.256 0 0 0 13.654-32.112l-1.155-2.835z"
      fill="#FD621D"></path>
  </symbol>
  <symbol id="header-icon-danjiyouxi" viewBox="0 0 1024 1024">
    <path
      d="M512 153.6h-.026q50.458 0 50.458 50.458v100.864q0 50.457-50.458 50.457H512q-50.458 0-50.458-50.457V204.058q0-50.458 50.458-50.458Z"
      fill="#FB952C"></path>
    <path
      d="M637.056 254.49H386.944C219.187 254.49 83.2 390.477 83.2 558.234c0 167.73 135.987 303.718 303.744 303.718h250.112c167.757 0 303.744-135.987 303.744-303.718 0-167.757-135.987-303.744-303.744-303.744z"
      fill="#FFF"></path>
    <path
      d="M637.056 254.49H386.944C219.187 254.49 83.2 390.477 83.2 558.234c0 167.73 135.987 303.718 303.744 303.718h250.112c167.757 0 303.744-135.987 303.744-303.718 0-167.757-135.987-303.744-303.744-303.744zM404.787 611.84h-35.712v35.712a35.738 35.738 0 0 1-71.475 0V611.84h-35.738a35.738 35.738 0 0 1 0-71.475H297.6v-35.738a35.738 35.738 0 0 1 71.475 0v35.738h35.738a35.738 35.738 0 0 1 0 71.475zm285.901 71.424a107.213 107.213 0 1 1 0-214.4 107.213 107.213 0 0 1 0 214.4z"
      fill="#F55E55"></path>
    <path d="M639.923 576.102a53.606 53.606 0 1 0 107.213 0 53.606 53.606 0 0 0-107.213 0z" fill="#FB952C"></path>
  </symbol>
  <symbol id="header-icon-virtual" viewBox="0 0 1024 1024">
    <path
      d="M212.557 605.082c-.077 42.854-13.799 82.048-41.037 117.606-40.909 53.325-83.917 69.274-77.824 85.197 11.34 35.405 45.568 49.024 102.656 40.883 36.787 61.44 95.488 90.01 176.026 85.606 88.601-9.6 119.654-92.006 93.107-247.219l-252.903-82.048zm522.112-13.67a293.504 293.504 0 0 1-52.352 122.828c-40.448 55.706-31.386 56.934-25.344 73.6 7.782 21.453 24.013 50.048 48.742 85.811 80.205 26.931 158.362 13.056 234.496-41.574 30.95-25.344-15.974-57.267-51.942-136.602-10.317-22.784-5.069-88.013 15.77-195.66l-169.37 91.596z"
      fill="#23ADE5"></path>
    <path
      d="m706.202 689.664 113.28-16.384c35.993-44.646 69.888-54.502 101.683-29.517 47.693 37.427 8.269 142.029-71.501 102.759-1.74 0-51.507 5.53-149.35 16.64l5.888-73.524zm-285.568 69.811a41.882 41.882 0 0 1 18.508 56.73l-36.096 69.709a43.136 43.136 0 0 1-57.548 18.764 41.882 41.882 0 0 1-18.484-56.73l36.045-69.708a43.136 43.136 0 0 1 57.575-18.765z"
      fill="#FFE6DF"></path>
    <path
      d="M465.46 698.112c-35.508-.666-67.457 23.296-95.873 71.834-.051.358 18.1 20.172 54.451 59.468l-18.585 64.154c2.662 36.173 57.062 54.272 163.174 54.272s165.146-21.427 177.152-64.23l-30.72-93.236c50.79-1.126 76.211-7.424 76.211-18.841 0-17.152-27.673-97.536-27.673-115.328 0-11.853-26.445-5.632-79.309 18.688l-218.829 23.219z"
      fill="#47CFE5"></path>
    <path
      d="m528.538 684.083 56.192-4.915 22.912 53.683c-23.962 27.955-38.35 41.805-43.085 41.523-6.375-.025-22.912-11.161-49.639-33.408l13.62-56.883z"
      fill="#FED878"></path>
    <path d="m560.512 728.013-37.427 106.393 53.888 79.079 38.86-87.168z" fill="#FED878"></path>
    <path
      d="M574.54 705.024c290.484-44.826 302.72-134.016 290.51-252.928-12.237-118.886-160.282-200.422-330.752-182.093-170.42 18.33-298.676 129.587-286.464 248.474 12.21 118.912 36.224 231.321 326.707 186.521z"
      fill="#FFE6DF"></path>
    <path
      d="M388.02 350.848c25.65 24.32 31.743 31.411 85.452 58.445 105.14 42.752 245.811 9.344 192.205-92.928 19.533 43.417 96.256 99.763 131.43 118.502-8.755 137.216-15.565 200.781 8.755 209.101 19.584 6.707 83.584-40.064 102.119-171.187 19.712-239.463-231.783-433.152-347.955-354.304-276.276-94.515-476.8 224.87-420.378 440.09 30.72 113.689 139.392 207.923 174.746 182.348 24.806-17.92 3.276-148.429-35.047-228.864 48.717-40.448 68.71-57.625 108.672-161.177z"
      fill="#23ADE5"></path>
    <path
      d="m337.306 490.163 2.38.359 129.357 29.184c13.159 2.944 16.896 19.353 7.424 27.904l-2.073 1.587L368.46 618.7a16.282 16.282 0 0 1-19.968-25.6l2.099-1.639 73.805-48.435-91.879-20.736a16.307 16.307 0 0 1-12.646-17.075l.358-2.38a16.307 16.307 0 0 1 17.076-12.673zM653.928 504.238a86.58 42.317 84 1 0 84.17-8.847 86.58 42.317 84 1 0-84.17 8.847Z"
      fill="#24A7DA"></path>
    <path
      d="m625.254 565.632 2.407.256a16.282 16.282 0 0 1 13.235 18.867c-8.525 48.205-28.672 71.527-57.446 67.712a58.778 58.778 0 0 1-24.628-9.958l-1.33-.947-1.511 1.28c-28.621 22.912-55.885 15.052-71.04-22.63l-1.69-4.48a16.282 16.282 0 0 1 30.72-10.906l2.176 5.888c5.658 14.13 9.984 16.204 20.045 6.86l4.045-4.044 4.659-5.095a16.307 16.307 0 0 1 23.04-1.331l1.843 1.971c2.867 3.584 11.853 10.291 17.946 11.085 7.526 1.024 15.232-7.885 21.069-41.062a16.307 16.307 0 0 1 16.46-13.466z"
      fill="#24A7DA"></path>
  </symbol>
  <symbol viewBox="0 0 1024 1024" id="header-icon-blackroom">
    <path d="M0 0h1024v1024H0z" fill="none"></path>
    <path
      d="M874.675 156.595c14.848 0 27.136 11.187 28.8 25.6l.205 3.405v335.949c0 14.873-11.213 27.136-25.626 28.825l-3.379.18H697.702l-54.476 54.502a29.03 29.03 0 0 1-35.354 4.429l-2.944-2.023-2.74-2.406-54.527-54.528-134.912.026c-13.747 0-25.242-9.55-28.263-22.35l-.563-3.276-.205-3.38V382.567H370.74c-13.721 0-25.216-9.523-28.237-22.348l-.563-3.252-.205-3.404V185.6c0-14.874 11.213-27.136 25.626-28.826l3.38-.179h503.935z"
      fill="#AAF6C4"></path>
    <path
      d="M755.2 268.8c18.611 0 33.92 14.003 36.02 32.026l.255 4.25v435.2c0 18.585-14.003 33.92-32.051 36.018l-4.224.256H422.733L287.36 878.08c-21.683 16.256-51.763 3.738-57.165-20.992l-.665-4.02-.205-3.993v-72.55h-54.4c-17.152 0-31.54-11.93-35.303-27.955l-.716-4.096-.256-4.199v-435.2c0-18.611 14.028-33.945 32.05-36.019l4.225-.256H755.2z"
      fill="#59D498"></path>
    <path
      d="M392.525 563.2a32 32 0 0 1 3.277 63.846l-3.277.154h-108.8a32 32 0 0 1-3.251-63.846l3.25-.154h108.8zm108.8-145.075a32 32 0 0 1 3.277 63.846l-3.277.154h-217.6a32 32 0 0 1-3.251-63.821l3.25-.18h217.6z"
      fill="#FFF"></path>
  </symbol>
  <symbol viewBox="0 0 1024 1024" id="header-icon-love">
    <path d="M131.56 512a380.44 380.44 0 1 0 760.88 0 380.44 380.44 0 1 0-760.88 0Z" fill="#00AEEC"></path>
    <path
      d="M600.518 766.255c-13.183 0-22.6-11.3-22.6-22.6 0-92.286 75.335-167.62 169.503-167.62 13.184 0 22.6 11.3 22.6 22.6s-11.3 22.6-22.6 22.6c-67.801 0-124.302 54.618-124.302 122.42 0 13.183-9.417 22.6-22.6 22.6zm-177.036 0c-13.184 0-22.6-11.3-22.6-22.6 0-67.802-56.502-122.42-124.303-122.42-13.184 0-22.6-11.3-22.6-22.6s11.3-22.6 22.6-22.6c94.168 0 169.503 75.334 169.503 167.62 0 13.183-9.417 22.6-22.6 22.6zm-82.869-459.542c33.901-28.25 79.102-37.668 122.42-24.484 5.65 1.883 7.533 9.417 3.766 15.067l-62.151 62.151c-7.534 7.533-7.534 20.717 0 28.25 7.533 7.534 20.717 7.534 28.25 0l69.685-69.684c50.851-50.851 133.72-50.851 186.454 0 50.85 50.85 50.85 131.836 0 182.687L523.3 664.553c-7.533 7.533-18.833 7.533-24.484 0L325.546 495.05c-47.084-58.385-39.55-141.253 15.067-188.337z"
      fill="#FFF"></path>
  </symbol>
  <symbol viewBox="0 0 40 40" id="header-icon-mooc">
    <rect width="14" height="3" rx="1.5" transform="matrix(-.17365 .9848 -.98266 -.18541 17.38 20)" fill="#FFD778">
    </rect>
    <rect width="14" height="3" rx="1.5" transform="matrix(-.17365 -.9848 .98681 -.16186 26.425 33.752)" fill="#FFD778">
    </rect>
    <rect x="7" y="6" width="26.654" height="20.042" rx="2" fill="#7B78EA"></rect>
    <rect x="4" y="23.815" width="32" height="3" rx="1.5" fill="#FFD778"></rect>
    <path fill-rule="evenodd" clip-rule="evenodd"
      d="m24.638 15.197-5.43 3.671a.753.753 0 0 1-.59.113.756.756 0 0 1-.279-.13.8.8 0 0 1-.21-.235.82.82 0 0 1-.129-.442v-7.35a.854.854 0 0 1 .233-.583.767.767 0 0 1 .555-.24.715.715 0 0 1 .42.129l5.43 3.67a.832.832 0 0 1 .344.521.87.87 0 0 1-.105.624.79.79 0 0 1-.239.252Z"
      fill="#FFD778"></path>
  </symbol>
</svg>