<svg xmlns="http://www.w3.org/2000/svg" viewBox="-1 -1 26 26"><path d="M11.1,13.46a8.76,8.76,0,0,0,2.69-.86,3.56,3.56,0,0,0,1.38-1.3,3.17,3.17,0,0,0,.4-1.55,3.29,3.29,0,0,0-2.3-3.26A9,9,0,0,0,10,6H2.45v.73l1.92.17c0,1.08.06,2.17.06,3.26v7.51c0,1.15,0,2.29-.06,3.41l-1.92.19V22H9.23a13.79,13.79,0,0,0,3.59-.39A6,6,0,0,0,15,20.56a3.67,3.67,0,0,0,1.15-1.44,4.06,4.06,0,0,0,.33-1.57,3.42,3.42,0,0,0-1.26-2.74A7.53,7.53,0,0,0,11.1,13.46ZM8,10C8,8.92,8,7.86,8,6.82h1a3,3,0,0,1,2.34.8,3.25,3.25,0,0,1,.72,2.26,3.42,3.42,0,0,1-.83,2.47,3.21,3.21,0,0,1-2.47.89H8C8,12.14,8,11.05,8,10Zm3.86,10.31a3.8,3.8,0,0,1-2.71.92H8c0-1.15,0-2.31,0-3.5S8,15.29,8,14H9a4.1,4.1,0,0,1,2.88.87,3.58,3.58,0,0,1,.93,2.73A3.49,3.49,0,0,1,11.84,20.29Z"/><path d="M20.25,4.82c-.37,0-.74,0-1.12,0,0-.38,0-.75.05-1.12A14.88,14.88,0,0,1,19.38,2H17.63a17.33,17.33,0,0,1,.19,1.75c0,.37,0,.74.05,1.12-.38,0-.75,0-1.12,0A17.33,17.33,0,0,1,15,4.63V6.38a14.88,14.88,0,0,1,1.75-.2c.37,0,.74,0,1.12,0,0,.38,0,.75-.05,1.12A17.33,17.33,0,0,1,17.63,9h1.75a14.88,14.88,0,0,1-.2-1.75c0-.37,0-.74-.05-1.12.38,0,.75,0,1.12,0a14.88,14.88,0,0,1,1.75.2V4.63A17.33,17.33,0,0,1,20.25,4.82Z"/></svg>