<svg id="a75ac312-07fb-4078-8202-99a264d279df" xmlns="http://www.w3.org/2000/svg" viewBox="0 0 24 24"><polygon points="22 5 19 5 19 2 17 2 17 5 14 5 14 7 17 7 17 10 19 10 19 7 22 7 22 5"/><path d="M3,21V6.46H8.56A6.18,6.18,0,0,1,11.19,7a3.54,3.54,0,0,1,1.57,1.34,3.6,3.6,0,0,1,.52,1.93,3.16,3.16,0,0,1-.34,1.52,2.78,2.78,0,0,1-.92,1,3.85,3.85,0,0,1-1.28.55v.14a3.29,3.29,0,0,1,2.13,1,3.35,3.35,0,0,1,.71,1.11A4,4,0,0,1,13.84,17a3.93,3.93,0,0,1-.31,1.57,3.37,3.37,0,0,1-.92,1.26,4.44,4.44,0,0,1-1.54.83,7.16,7.16,0,0,1-2.19.3Zm2.62-8.36H8.24a2.91,2.91,0,0,0,1.23-.25,2,2,0,0,0,.86-.72,2.08,2.08,0,0,0,.05-2.1,1.79,1.79,0,0,0-.79-.69A2.93,2.93,0,0,0,8.3,8.62H5.62Zm0,6.16H8.46A4,4,0,0,0,10,18.55a1.78,1.78,0,0,0,.87-.7,1.93,1.93,0,0,0,.27-1,2.24,2.24,0,0,0-.31-1.18,2.17,2.17,0,0,0-.9-.82,3.06,3.06,0,0,0-1.41-.3H5.62Z"/></svg>