<svg xmlns="http://www.w3.org/2000/svg" viewBox="-1 -1 26 26"><path d="M10,14.11a7.76,7.76,0,0,0,2.48-.8,3.17,3.17,0,0,0,1.28-1.19,2.93,2.93,0,0,0,.37-1.43,3.2,3.2,0,0,0-.5-1.79A3.26,3.26,0,0,0,12,7.67a8.38,8.38,0,0,0-3-.45H2V7.9l1.78.15c0,1,.05,2,.05,3s0,2,0,3v.71c0,1.07,0,2.13,0,3.2s0,2.11-.05,3.15L2,21.32V22H8.27a12.7,12.7,0,0,0,3.31-.36,5.51,5.51,0,0,0,2.05-1,3.45,3.45,0,0,0,1.06-1.33A3.64,3.64,0,0,0,15,17.89a3.15,3.15,0,0,0-1.17-2.53A7,7,0,0,0,10,14.11ZM7.11,10.9c0-1,0-2,0-2.92h.93a2.78,2.78,0,0,1,2.17.74,3,3,0,0,1,.66,2.09,3.21,3.21,0,0,1-.76,2.28,3,3,0,0,1-2.29.82H7.1C7.1,12.89,7.1,11.89,7.11,10.9Zm3.56,9.52a3.48,3.48,0,0,1-2.5.85h-1c0-1.06,0-2.14,0-3.23s0-2.24,0-3.42h1a3.8,3.8,0,0,1,2.65.8,3.33,3.33,0,0,1,.86,2.52A3.23,3.23,0,0,1,10.67,20.42Z"/><polygon points="22 5 19 5 19 2 17 2 17 5 14 5 14 7 17 7 17 10 19 10 19 7 22 7 22 5"/></svg>