<svg xmlns="http://www.w3.org/2000/svg" viewBox="0 0 32 32"><path d="M27,7.35l-9-5.2a4,4,0,0,0-4,0L5,7.35a4,4,0,0,0-2,3.46V21.19a4,4,0,0,0,2,3.46l9,5.2a4,4,0,0,0,4,0l9-5.2a4,4,0,0,0,2-3.46V10.81A4,4,0,0,0,27,7.35Zm-.5,13.84a1.51,1.51,0,0,1-.75,1.3l-9,5.19a1.51,1.51,0,0,1-1.5,0l-9-5.19a1.51,1.51,0,0,1-.75-1.3V10.81a1.51,1.51,0,0,1,.75-1.3l9-5.19a1.51,1.51,0,0,1,1.5,0l9,5.19a1.51,1.51,0,0,1,.75,1.3Z"/><path d="M16,9.75A6.25,6.25,0,1,0,22.25,16,6.25,6.25,0,0,0,16,9.75Zm0,10A3.75,3.75,0,1,1,19.75,16,3.75,3.75,0,0,1,16,19.75Z"/></svg>