<svg xmlns="http://www.w3.org/2000/svg" viewBox="0 0 1920 500"><g id="f51d270d-834c-4f43-9d17-06f83f3b1bca" data-name="very-small"><path d="M418,409.33a329.13,329.13,0,0,1-55,4.14c-4.81-60.71-13.75-136.64-23.24-200.55" style="fill:none;stroke:#1bb2ed;stroke-linecap:round;stroke-linejoin:round;stroke-width:14px"/><path d="M388.59,299.72c38.53-4.14,123.43,11.86,128.86,44.2,3.83,22.78-29.8,49.63-78.92,61.41" style="fill:none;stroke:#1bb2ed;stroke-linecap:round;stroke-linejoin:round;stroke-width:14px"/><path d="M336.53,191.54c-4.76-32.08-6.43-39.75-11-62.33,15.79-6.5,29.81-14.18,53.46-21.66-1.39,74-.11,100.36,7.51,171" style="fill:none;stroke:#1bb2ed;stroke-linecap:round;stroke-linejoin:round;stroke-width:14px"/><polyline points="434.12 342.31 453.17 350.3 416.26 379.69 410.79 332.53" style="fill:none;stroke:#1bb2ed;stroke-linecap:round;stroke-linejoin:round;stroke-width:14px"/><path d="M904.52,337.9H880.16c-7.24,0-14.15-5.2-14.15-15.62v-110c0-4.45,3.75-7.65,8.18-7.65,4.86,0,8.18,3.31,8.18,7.79v46.45a2.48,2.48,0,0,0,2.43,2.65h16.36c26.88,0,36.61,19.16,36.61,39C937.77,322.84,923,337.9,904.52,337.9Zm-1.28-62.75h-18a2.88,2.88,0,0,0-2.91,2.62v42.86a3,3,0,0,0,2.62,2.95h18.46c10.85,0,19.43-9,19.43-23.7S913.76,275.15,903.24,275.15Z" style="fill:#1bb2ed"/><path d="M709.73,275a48.79,48.79,0,0,0-17-7.81q23.61-7.06,23.61-28.54,0-16.92-13.11-25.84-12.27-8.19-33.93-8.18H645.06q-16,0-16,15.43V322.28q0,15.63,16,15.62h26.09q20.45,0,32.82-6.32,18.59-9.39,18.59-30.68Q722.56,284.82,709.73,275Zm-50.66-13.48a6.84,6.84,0,0,0-6.84,6.84h0a6.83,6.83,0,0,0,6.84,6.83h12.45q12.45,0,21.2,4.37Q706,286.21,706,299.88q0,23.7-34.12,23.7H649.8q-4.18,0-4.19-4V222.72c0-1.49.27-2.47.79-2.93a5.11,5.11,0,0,1,3.21-.7h22.65q11.34,0,18.5,4.18,9.39,5.4,9.39,16.09,0,11.8-11,17.94a35.44,35.44,0,0,1-17.66,4.18Z" style="fill:#1bb2ed"/><path d="M750,231a12.17,12.17,0,0,1,6.41,1.86,11.59,11.59,0,0,1,5.95,10.5,12.34,12.34,0,0,1-12.45,12.37,11.79,11.79,0,0,1-5.67-1.4,11.63,11.63,0,0,1-6.61-11,11.89,11.89,0,0,1,3.82-9A12.17,12.17,0,0,1,750,231Z" style="fill:#1bb2ed"/><path d="M755.89,273.84a9.31,9.31,0,0,0-11.16-.37,6.56,6.56,0,0,0-2.88,5.67v51.32a7.56,7.56,0,0,0,1.11,4.1q2.32,3.35,7.07,3.34c3.16,0,5.49-1.11,7-3.34a7.07,7.07,0,0,0,1.21-4.1V279.14A6.89,6.89,0,0,0,755.89,273.84Z" style="fill:#1bb2ed"/><path d="M838.54,231a12.17,12.17,0,0,1,6.41,1.86,11.59,11.59,0,0,1,5.95,10.5,12.34,12.34,0,0,1-12.45,12.37,11.86,11.86,0,0,1-5.68-1.4,11.64,11.64,0,0,1-6.6-11,11.89,11.89,0,0,1,3.82-9A12.17,12.17,0,0,1,838.54,231Z" style="fill:#1bb2ed"/><path d="M844.4,273.84a9.31,9.31,0,0,0-11.16-.37,6.56,6.56,0,0,0-2.88,5.67v51.32a7.56,7.56,0,0,0,1.11,4.1q2.32,3.35,7.07,3.34t7-3.34a7.07,7.07,0,0,0,1.21-4.1V279.14A6.93,6.93,0,0,0,844.4,273.84Z" style="fill:#1bb2ed"/><path d="M961.24,231a12.23,12.23,0,0,1,6.42,1.86,11.61,11.61,0,0,1,6,10.5,12.35,12.35,0,0,1-12.46,12.37,11.79,11.79,0,0,1-5.67-1.4,11.64,11.64,0,0,1-6.6-11,11.92,11.92,0,0,1,3.81-9A12.19,12.19,0,0,1,961.24,231Z" style="fill:#1bb2ed"/><path d="M967.1,273.84a9.31,9.31,0,0,0-11.16-.37,6.56,6.56,0,0,0-2.88,5.67v51.32a7.48,7.48,0,0,0,1.12,4.1c1.54,2.23,3.9,3.34,7.06,3.34s5.49-1.11,7-3.34a7.14,7.14,0,0,0,1.2-4.1V279.14A6.89,6.89,0,0,0,967.1,273.84Z" style="fill:#1bb2ed"/><path d="M1049.75,231a12.17,12.17,0,0,1,6.41,1.86,11.6,11.6,0,0,1,6,10.5,12.35,12.35,0,0,1-12.46,12.37,11.79,11.79,0,0,1-5.67-1.4,11.62,11.62,0,0,1-6.6-11,11.89,11.89,0,0,1,3.81-9A12.17,12.17,0,0,1,1049.75,231Z" style="fill:#1bb2ed"/><path d="M1055.61,273.84a9.31,9.31,0,0,0-11.16-.37,6.56,6.56,0,0,0-2.88,5.67v51.32a7.56,7.56,0,0,0,1.11,4.1q2.33,3.35,7.07,3.34c3.16,0,5.49-1.11,7-3.34a7.07,7.07,0,0,0,1.21-4.1V279.14A6.89,6.89,0,0,0,1055.61,273.84Z" style="fill:#1bb2ed"/><path d="M984.71,330.75a7.16,7.16,0,0,0,7.16,7.15h31.3a6.42,6.42,0,0,0,3.83-1.11,9.29,9.29,0,0,0,.73-13.48,6.5,6.5,0,0,0-4.56-1.77h-19.69a2.41,2.41,0,0,1-2.41-2.41V238a6.17,6.17,0,0,0-2.32-5,8.63,8.63,0,0,0-5.86-2,9.1,9.1,0,0,0-5.3,1.55,6.33,6.33,0,0,0-2.88,5.47v92.75Z" style="fill:#1bb2ed"/><path d="M773.5,330.75a7.15,7.15,0,0,0,7.16,7.15H812a6.42,6.42,0,0,0,3.83-1.11,9.28,9.28,0,0,0,.72-13.48,6.46,6.46,0,0,0-4.55-1.77H792.27a2.41,2.41,0,0,1-2.41-2.41V238a6.17,6.17,0,0,0-2.32-5,8.63,8.63,0,0,0-5.86-2,9.1,9.1,0,0,0-5.3,1.55A6.33,6.33,0,0,0,773.5,238v92.75Z" style="fill:#1bb2ed"/><path d="M1356,211.61V330.79a6.5,6.5,0,0,1-1.77,4.56,9.29,9.29,0,0,1-13.48-.73,6.41,6.41,0,0,1-1.12-3.83V211.61a6.3,6.3,0,0,1,2.89-5.47,9,9,0,0,1,5.3-1.55,8.67,8.67,0,0,1,5.85,2A6.2,6.2,0,0,1,1356,211.61Z" style="fill:#1bb2ed"/><path d="M1488.53,300.44c0-19.8,9.73-39,36.6-39h16.37a2.48,2.48,0,0,0,2.43-2.65V212.38c0-4.48,3.32-7.79,8.18-7.79,4.43,0,8.18,3.2,8.18,7.65v110c0,10.42-6.91,15.62-14.15,15.62h-24.36C1503.35,337.9,1488.53,322.84,1488.53,300.44Zm14.88-.56c0,14.66,8.59,23.7,19.43,23.7h18.47a3,3,0,0,0,2.62-2.95V277.77a2.88,2.88,0,0,0-2.91-2.62h-18C1512.53,275.15,1503.41,285.21,1503.41,299.88Z" style="fill:#1bb2ed"/><path d="M1310.92,283.31a45.8,45.8,0,0,1,.39,6.08q0,14.33-7.81,23.71a27.92,27.92,0,0,1-8.94,7.14l-7.5,16.93a46.62,46.62,0,0,0,15.89-4.46,42.51,42.51,0,0,0,19.8-20,53.22,53.22,0,0,0,5.11-23.43q0-15.69-7.5-27.3Z" style="fill:#1bb2ed"/><path d="M1473.86,313.27a7.41,7.41,0,0,0-5.39-2.33,9.51,9.51,0,0,0-6.14,2.61,41.13,41.13,0,0,1-16.19,8.57l-6.93,15.65q19.36-1,31.68-10.75,5.2-4.17,5.2-8.27A7.63,7.63,0,0,0,1473.86,313.27Z" style="fill:#1bb2ed"/><path d="M1300.38,245.63c-4.4-1.94-11.08-3-17.44-3a52.77,52.77,0,0,0-13.1,1.59,42.45,42.45,0,0,0-19.79,11.17l7.12,16.69h0a30.37,30.37,0,0,1,4.95-6.68,27.38,27.38,0,0,1,20.55-8.46h1.3a2.51,2.51,0,0,1,2.31,3.48l-25.57,60.38-29.94-70.47q-2.13-5.12-7.15-5.12a9.15,9.15,0,0,0-4.56,1.21,7,7,0,0,0-3.9,6.42,8.08,8.08,0,0,0,.74,3.34L1247.69,328q4.47,10,12.93,9.95,8.64,0,13-9.95l31.8-71.77a8.22,8.22,0,0,0,.74-3.44C1306.13,249.46,1303.59,247,1300.38,245.63Z" style="fill:#1bb2ed"/><path d="M1465.39,254.09q-13.2-12.18-31.79-12.18-19,0-31.74,11.26l6.36,14.94h0a24.9,24.9,0,0,1,2.51-3q8.82-9.12,22.68-9.11,16.63,0,24.17,12.55,3.17,5.38,3.16,9.11c0,1.67-1,2.51-3,2.51H1436a8.52,8.52,0,0,0-7.83,5.18l-15,35.38-29.93-70.47q-2.14-5.12-7.16-5.11a9.1,9.1,0,0,0-4.56,1.21,7,7,0,0,0-3.9,6.41,8.29,8.29,0,0,0,.74,3.35l31.8,71.77q4.45,9.94,12.92,9.95,8.64,0,13-9.95l14-31.62a6,6,0,0,1,5.46-3.55h22.85q9.66,0,9.67-11.07Q1478.13,265.82,1465.39,254.09Z" style="fill:#1bb2ed"/><path d="M1176.49,279.43h19.83c4.09-.07,6.15-2.41,6.15-7.06q0-4.46-3.16-6.23a5.93,5.93,0,0,0-3-.82h-33.88a7.06,7.06,0,0,0-7.06,7.06h0a7.07,7.07,0,0,0,7.06,7.07Z" style="fill:#1bb2ed"/><path d="M1210.28,324.7a6.43,6.43,0,0,0-4.28-1.49h-53.62c-2.41,0-3.62-1.2-3.62-3.62V229c0-2.42,1.21-3.62,3.62-3.62h50.84a6.27,6.27,0,0,0,3.9-1.21,7.55,7.55,0,0,0,2.7-6.14,7.15,7.15,0,0,0-2.51-5.86,6,6,0,0,0-4.09-1.48h-55q-16,0-16,15.8V322.1q0,15.81,16,15.8H1206a6.35,6.35,0,0,0,4-1.21,7.26,7.26,0,0,0,2.7-6A7.54,7.54,0,0,0,1210.28,324.7Z" style="fill:#1bb2ed"/></g></svg>