<svg xmlns="http://www.w3.org/2000/svg" viewBox="0 0 1920 500"><g id="ba8ebcf7-47e1-4c54-b3a4-0ff88515fcfb" data-name="very-small"><path d="M418,398.82A329.13,329.13,0,0,1,363,403c-4.81-60.71-13.75-136.64-23.24-200.55" style="fill:none;stroke:#1bb2ed;stroke-linecap:round;stroke-linejoin:round;stroke-width:14px"/><path d="M388.59,289.21c38.53-4.14,123.43,11.85,128.86,44.2,3.83,22.77-29.8,49.62-78.92,61.41" style="fill:none;stroke:#1bb2ed;stroke-linecap:round;stroke-linejoin:round;stroke-width:14px"/><path d="M336.53,181c-4.76-32.08-6.43-39.75-11-62.33C341.31,112.2,355.33,104.52,379,97c-1.39,74-.11,100.36,7.51,170.94" style="fill:none;stroke:#1bb2ed;stroke-linecap:round;stroke-linejoin:round;stroke-width:14px"/><polyline points="434.12 331.8 453.17 339.79 416.26 369.18 410.79 322.02" style="fill:none;stroke:#1bb2ed;stroke-linecap:round;stroke-linejoin:round;stroke-width:14px"/><path d="M904.52,326.84H880.16c-7.24,0-14.15-5.21-14.15-15.62v-110c0-4.45,3.75-7.66,8.18-7.66,4.86,0,8.18,3.32,8.18,7.8v46.45a2.48,2.48,0,0,0,2.43,2.65h16.36c26.88,0,36.61,19.16,36.61,39C937.77,311.77,923,326.84,904.52,326.84Zm-1.28-62.75h-18a2.88,2.88,0,0,0-2.91,2.62v42.85a3,3,0,0,0,2.62,3h18.46c10.85,0,19.43-9,19.43-23.7S913.76,264.09,903.24,264.09Z"/><path d="M709.73,263.9q-6.6-5-17-7.81,23.61-7.06,23.61-28.54,0-16.92-13.11-25.84-12.27-8.19-33.93-8.19H645.06q-16,0-16,15.44V311.22q0,15.61,16,15.62h26.09q20.45,0,32.82-6.32,18.59-9.39,18.59-30.68Q722.56,273.76,709.73,263.9Zm-50.66-13.48a6.83,6.83,0,0,0-6.84,6.83h0a6.84,6.84,0,0,0,6.84,6.84h12.45q12.45,0,21.2,4.37Q706,275.15,706,288.82q0,23.7-34.12,23.7H649.8q-4.18,0-4.19-4V211.65c0-1.48.27-2.46.79-2.93a5.19,5.19,0,0,1,3.21-.69h22.65q11.34,0,18.5,4.18,9.39,5.4,9.39,16.08,0,11.82-11,18a35.44,35.44,0,0,1-17.66,4.18Z"/><path d="M750,219.92a12.17,12.17,0,0,1,6.41,1.86,11.58,11.58,0,0,1,5.95,10.5,12.34,12.34,0,0,1-12.45,12.37,11.79,11.79,0,0,1-5.67-1.4,11.63,11.63,0,0,1-6.61-11,11.89,11.89,0,0,1,3.82-9A12.13,12.13,0,0,1,750,219.92Z"/><path d="M755.89,262.78a8.53,8.53,0,0,0-5.86-2,8.63,8.63,0,0,0-5.3,1.67,6.59,6.59,0,0,0-2.88,5.68V319.4a7.5,7.5,0,0,0,1.11,4.09q2.32,3.35,7.07,3.35c3.16,0,5.49-1.12,7-3.35a7,7,0,0,0,1.21-4.09V268.08A6.89,6.89,0,0,0,755.89,262.78Z"/><path d="M838.54,219.92a12.17,12.17,0,0,1,6.41,1.86,11.58,11.58,0,0,1,5.95,10.5,12.34,12.34,0,0,1-12.45,12.37,11.86,11.86,0,0,1-5.68-1.4,11.64,11.64,0,0,1-6.6-11,11.89,11.89,0,0,1,3.82-9A12.13,12.13,0,0,1,838.54,219.92Z"/><path d="M844.4,262.78a9.33,9.33,0,0,0-11.16-.38,6.59,6.59,0,0,0-2.88,5.68V319.4a7.5,7.5,0,0,0,1.11,4.09q2.32,3.35,7.07,3.35t7-3.35a7,7,0,0,0,1.21-4.09V268.08A6.93,6.93,0,0,0,844.4,262.78Z"/><path d="M961.24,219.92a12.23,12.23,0,0,1,6.42,1.86,11.6,11.6,0,0,1,6,10.5,12.35,12.35,0,0,1-12.46,12.37,11.79,11.79,0,0,1-5.67-1.4,11.64,11.64,0,0,1-6.6-11,11.92,11.92,0,0,1,3.81-9A12.15,12.15,0,0,1,961.24,219.92Z"/><path d="M967.1,262.78a8.51,8.51,0,0,0-5.86-2,8.63,8.63,0,0,0-5.3,1.67,6.59,6.59,0,0,0-2.88,5.68V319.4a7.43,7.43,0,0,0,1.12,4.09c1.54,2.23,3.9,3.35,7.06,3.35s5.49-1.12,7-3.35a7.08,7.08,0,0,0,1.2-4.09V268.08A6.89,6.89,0,0,0,967.1,262.78Z"/><path d="M1049.75,219.92a12.17,12.17,0,0,1,6.41,1.86,11.59,11.59,0,0,1,6,10.5,12.35,12.35,0,0,1-12.46,12.37,11.79,11.79,0,0,1-5.67-1.4,11.62,11.62,0,0,1-6.6-11,11.89,11.89,0,0,1,3.81-9A12.13,12.13,0,0,1,1049.75,219.92Z"/><path d="M1055.61,262.78a8.51,8.51,0,0,0-5.86-2,8.63,8.63,0,0,0-5.3,1.67,6.59,6.59,0,0,0-2.88,5.68V319.4a7.5,7.5,0,0,0,1.11,4.09q2.33,3.35,7.07,3.35c3.16,0,5.49-1.12,7-3.35a7,7,0,0,0,1.21-4.09V268.08A6.89,6.89,0,0,0,1055.61,262.78Z"/><path d="M984.71,319.68a7.16,7.16,0,0,0,7.16,7.16h31.3a6.36,6.36,0,0,0,3.83-1.12,9.29,9.29,0,0,0,.73-13.48,6.54,6.54,0,0,0-4.56-1.76h-19.69a2.41,2.41,0,0,1-2.41-2.41V226.94a6.19,6.19,0,0,0-2.32-5,8.68,8.68,0,0,0-5.86-2,9.1,9.1,0,0,0-5.3,1.55,6.33,6.33,0,0,0-2.88,5.47v92.74Z"/><path d="M773.5,319.68a7.15,7.15,0,0,0,7.16,7.16H812a6.36,6.36,0,0,0,3.83-1.12,9.28,9.28,0,0,0,.72-13.48,6.49,6.49,0,0,0-4.55-1.76H792.27a2.41,2.41,0,0,1-2.41-2.41V226.94a6.19,6.19,0,0,0-2.32-5,8.68,8.68,0,0,0-5.86-2,9.1,9.1,0,0,0-5.3,1.55,6.33,6.33,0,0,0-2.88,5.47v92.74Z"/><path d="M1356,200.55V319.73a6.5,6.5,0,0,1-1.77,4.56,9.29,9.29,0,0,1-13.48-.73,6.43,6.43,0,0,1-1.12-3.83V200.55a6.3,6.3,0,0,1,2.89-5.47,9,9,0,0,1,5.3-1.56,8.63,8.63,0,0,1,5.85,2A6.2,6.2,0,0,1,1356,200.55Z"/><path d="M1488.53,289.38c0-19.8,9.73-39,36.6-39h16.37a2.48,2.48,0,0,0,2.43-2.65V201.32c0-4.48,3.32-7.8,8.18-7.8,4.43,0,8.18,3.21,8.18,7.66v110c0,10.41-6.91,15.62-14.15,15.62h-24.36C1503.35,326.84,1488.53,311.77,1488.53,289.38Zm14.88-.56c0,14.66,8.59,23.7,19.43,23.7h18.47a3,3,0,0,0,2.62-3V266.71a2.88,2.88,0,0,0-2.91-2.62h-18C1512.53,264.09,1503.41,274.15,1503.41,288.82Z"/><path d="M1310.92,272.25a45.69,45.69,0,0,1,.39,6.08q0,14.31-7.81,23.71a27.92,27.92,0,0,1-8.94,7.14l-7.5,16.93a46.62,46.62,0,0,0,15.89-4.46,42.49,42.49,0,0,0,19.8-20,53.14,53.14,0,0,0,5.11-23.42q0-15.71-7.5-27.3Z"/><path d="M1473.86,302.2a7.44,7.44,0,0,0-5.39-2.32,9.55,9.55,0,0,0-6.14,2.6,41,41,0,0,1-16.19,8.58l-6.93,15.65q19.36-1,31.68-10.75,5.2-4.18,5.2-8.27A7.65,7.65,0,0,0,1473.86,302.2Z"/><path d="M1300.38,234.56c-4.4-1.93-11.08-3-17.44-3a53.24,53.24,0,0,0-13.1,1.58,42.47,42.47,0,0,0-19.79,11.18l7.12,16.69h0a30.37,30.37,0,0,1,4.95-6.68,27.38,27.38,0,0,1,20.55-8.46h1.3a2.51,2.51,0,0,1,2.31,3.48l-25.57,60.37-29.94-70.47q-2.13-5.1-7.15-5.11a9.05,9.05,0,0,0-4.56,1.21,7,7,0,0,0-3.9,6.41,8.09,8.09,0,0,0,.74,3.35l31.79,71.77q4.47,10,12.93,9.95,8.64,0,13-9.95l31.8-71.77a8.22,8.22,0,0,0,.74-3.44C1306.13,238.4,1303.59,236,1300.38,234.56Z"/><path d="M1465.39,243q-13.2-12.18-31.79-12.18-19,0-31.74,11.26l6.36,14.94h0a25.81,25.81,0,0,1,2.51-3q8.82-9.1,22.68-9.11,16.63,0,24.17,12.55,3.17,5.4,3.16,9.12c0,1.67-1,2.51-3,2.51H1436a8.52,8.52,0,0,0-7.83,5.18l-15,35.38-29.93-70.47q-2.14-5.12-7.16-5.11a9.2,9.2,0,0,0-4.56,1.2,7,7,0,0,0-3.9,6.42,8.29,8.29,0,0,0,.74,3.35l31.8,71.77q4.45,9.94,12.92,9.95,8.64,0,13-9.95l14-31.62a6,6,0,0,1,5.46-3.55h22.85q9.66,0,9.67-11.07Q1478.13,254.74,1465.39,243Z"/><path d="M1176.49,268.37h19.83v0c4.09-.06,6.15-2.4,6.15-7.05q0-4.46-3.16-6.23a5.93,5.93,0,0,0-3-.82h-33.88a7.06,7.06,0,0,0-7.06,7.06h0a7.07,7.07,0,0,0,7.06,7.07Z"/><path d="M1210.28,313.64a6.43,6.43,0,0,0-4.28-1.49h-53.62q-3.62,0-3.62-3.62V217.94q0-3.63,3.62-3.63h50.84a6.21,6.21,0,0,0,3.9-1.21,7.51,7.51,0,0,0,2.7-6.13,7.15,7.15,0,0,0-2.51-5.86,6,6,0,0,0-4.09-1.49h-55q-16,0-16,15.81V311q0,15.79,16,15.8H1206a6.35,6.35,0,0,0,4-1.21,7.26,7.26,0,0,0,2.7-6A7.54,7.54,0,0,0,1210.28,313.64Z"/></g></svg>