<svg xmlns="http://www.w3.org/2000/svg" xmlns:xlink="http://www.w3.org/1999/xlink" viewBox="0 0 1396.47 337.53"><defs><linearGradient id="未命名的渐变_67" x1="126.86" y1="27.44" x2="126.86" y2="337.53" gradientUnits="userSpaceOnUse"><stop offset="0" stop-color="#55caf9"/><stop offset="0" stop-color="#42c8ff" stop-opacity="0.4"/><stop offset="0.2" stop-color="#3fc7ff" stop-opacity="0.37"/><stop offset="0.53" stop-color="#37c5ff" stop-opacity="0.27"/><stop offset="0.94" stop-color="#2bc2ff" stop-opacity="0.12"/><stop offset="1" stop-color="#29c2ff" stop-opacity="0.1"/></linearGradient></defs><title>Colored</title><g id="图层_2" data-name="图层 2"><g id="wide-light-dark"><path d="M29.47,49.39c16-6.58,30.22-14.37,54.19-21.95-1.6,73.82,0,120.16,9.74,194.79,39.06-4.2,125.31,12,130.62,44.8,4.2,25.91-47.52,70.94-156.54,70.5C60.15,245.1,43.38,117.89,29.47,49.39Z" style="fill:url(#未命名的渐变_67)"/><path d="M97.73,309.9A334.46,334.46,0,0,1,42,314.09c-4.88-61.54-13.95-138.5-23.56-203.28" style="fill:none;stroke:#36b6dd;stroke-linecap:round;stroke-linejoin:round;stroke-width:8px"/><path d="M67.93,198.79c39.06-4.19,125.12,12,130.62,44.8,3.88,23.09-33.51,51.12-83.3,63.07" style="fill:none;stroke:#36b6dd;stroke-linecap:round;stroke-linejoin:round;stroke-width:8px"/><path d="M15.87,93.82C11,61.3,8.65,48.85,4,26,20,19.37,34.22,11.58,58.19,4c-1.4,75-.1,108.34,7.61,177.65" style="fill:none;stroke:#36b6dd;stroke-linecap:round;stroke-linejoin:round;stroke-width:8px"/><polyline points="107.83 238.08 135.21 249.56 94.63 281.88 88.62 230.02" style="fill:none;stroke:#36b6dd;stroke-linecap:round;stroke-linejoin:round;stroke-width:8px"/><path d="M1000.82,208.21l.3,32.43H908.26v-5.35l14.07-1.38q.39-11.85.43-23.94t0-24.33v-6.88q0-12.24,0-24.36t-.43-24.21L908.26,129v-5.35h89.57l-.15,31.21h-9l-7.26-25.09H949.64q-.23,11.78-.26,23.86t0,24.56H970.6L973,160.78h7.81v39.63H973l-2.22-16.6H949.34v.46q0,13,0,25.51t.26,24.74h35.19l7.27-26.31Z" style="fill:#36b6dd"/><path d="M1173.76,237l8.69.82v3.93H1143.7V237.8l8.81-.82q.06-6.24.16-12.9t.09-12.78V145.73l-9.37-.87v-3.38l28.69-5.5,1.81,1.19-.5,20.63v53.5q0,6.18.09,12.81T1173.76,237Z" style="fill:#36b6dd"/><path d="M1388.15,236.14l8.32.56v3.94l-27.38,1.56-1.06-7.93a31,31,0,0,1-9,6.28,25.68,25.68,0,0,1-10.84,2.28,27.47,27.47,0,0,1-15.16-4.35A30.06,30.06,0,0,1,1322.28,226q-4-8.17-4-19.75,0-12,4.28-20.4A31.15,31.15,0,0,1,1334,173a30.05,30.05,0,0,1,16-4.4q10.88,0,18.25,8.69v-32.5l-10.44-1v-3.38l29-5.5,1.81,1.19-.5,20.44Zm-20.62-5.75V180.77a14.4,14.4,0,0,0-4.69-2.63,15.7,15.7,0,0,0-4.75-.75,16.56,16.56,0,0,0-8.94,2.53q-4.07,2.54-6.46,8.66t-2.41,16.87q0,10.44,2.25,16.63t6.19,8.9a15.08,15.08,0,0,0,8.81,2.72,18,18,0,0,0,5.19-.75A14.6,14.6,0,0,0,1367.53,230.39Z" style="fill:#36b6dd"/><path d="M1134.23,185.45a33.29,33.29,0,0,0-13.12-12.62,38.38,38.38,0,0,0-18.38-4.41,38.79,38.79,0,0,0-13.54,2.34l-19.57,51c.43,1,.9,2.07,1.42,3.06A32.44,32.44,0,0,0,1083.67,238a37.43,37.43,0,0,0,19.06,4.69,38.3,38.3,0,0,0,19.06-4.59,32.13,32.13,0,0,0,12.75-13q4.57-8.45,4.57-19.88T1134.23,185.45Zm-20.9,44.69q-3.66,8-10.6,8t-10.59-8q-3.72-8-3.72-24.72t3.72-24.65q3.72-7.85,10.59-7.85t10.6,7.85q3.64,7.84,3.65,24.65T1113.33,230.14Z" style="fill:#36b6dd"/><path d="M1306.72,183.14a25.57,25.57,0,0,0-10-10.53q-6.6-3.9-16.22-3.91a38.92,38.92,0,0,0-13.35,2.38c-.67.25-1.34.52-2,.8l-18.75,48.92a32.62,32.62,0,0,0,15.38,17.78,39.79,39.79,0,0,0,18.84,4.37,32.35,32.35,0,0,0,17.22-4.53,29.49,29.49,0,0,0,11.35-12.78l-2.44-1.5a25.28,25.28,0,0,1-7.53,7,23.42,23.42,0,0,1-22.1-.22,20.52,20.52,0,0,1-8-9.06q-3-6.18-3.34-16.19h43.5a18.94,18.94,0,0,0,.63-3.62c.08-1.21.12-2.6.12-4.19A32,32,0,0,0,1306.72,183.14Zm-17.44,15.47q-1.5,2.47-6.06,2.47l-17.38-.13q.38-14.87,4.19-21.31t9.12-6.44a10.07,10.07,0,0,1,8.35,4.32q3.27,4.3,3.28,12.68Q1290.78,196.14,1289.28,198.61Z" style="fill:#36b6dd"/><path d="M1081.87,170.77v3.81l-9.06,1.44-24.87,64.87h-8.82l-25.75-65.25-7.87-1.06v-3.81h39.25v3.81l-9.19,1.06,16,45.81,15.38-45.56-10-1.31v-3.81Z" style="fill:#36b6dd"/><path d="M1258.83,170.77v3.81l-9.07,1.44-24.87,64.87h-8.81l-25.75-65.25-7.88-1.06v-3.81h39.25v3.81l-9.19,1.06,16,45.81,15.38-45.56-10-1.31v-3.81Z" style="fill:#36b6dd"/><path d="M382.63,119.59H439.5q15.47,0,24.74,3.67t13.33,10.06a26.58,26.58,0,0,1,4.06,14.59,23.91,23.91,0,0,1-3,11.64q-3,5.55-10.41,9.78t-20.31,6.51Q469.71,178,479.27,186a25.83,25.83,0,0,1,9.54,20.67,30.28,30.28,0,0,1-2.52,11.88,28.42,28.42,0,0,1-8.64,10.88q-6.12,4.94-16.77,7.89t-27.06,3H382.63v-5.52l14.51-1.42q.39-12.71.43-25.76t0-26.07v-5.84q0-12.39,0-24.73t-.43-24.58l-14.51-1.26Zm49.77,6.15h-7.65q-.31,11.83-.39,23.91t-.08,24.53h6.31q12.46,0,18.7-6.67t6.23-18.65q0-11.06-5.44-17.08T432.4,125.74Zm-7.65,108.55H433q13.09,0,20.43-6.9t7.34-20.23q0-14-7-20.59T432.09,180h-7.81q0,14.43.08,27.89T424.75,234.29Z" style="fill:#36b6dd"/><path d="M526.81,235.54l7.81.81v3.94H497.25v-3.94l8.44-.81q.06-3.75.12-8.38t.09-9.18q0-4.56,0-8.13V199.6c0-4.12,0-7.58-.1-10.37s-.15-5.84-.28-9.13l-9.62-1V176l29.31-7.69,1.81,1.31-.5,20.44v19.75q0,3.57,0,8.16t.1,9.22Q526.75,231.85,526.81,235.54Zm-11-80a11.23,11.23,0,0,1-7.75-2.91,9.53,9.53,0,0,1-3.25-7.47,9.75,9.75,0,0,1,3.25-7.53,11.15,11.15,0,0,1,7.75-3,11.31,11.31,0,0,1,7.84,3,9.71,9.71,0,0,1,3.29,7.53,9.5,9.5,0,0,1-3.29,7.47A11.4,11.4,0,0,1,515.81,155.54Z" style="fill:#36b6dd"/><path d="M619.5,235.54l7.81.81v3.94H589.94v-3.94l8.43-.81c0-2.5.09-5.29.13-8.38s.07-6.14.09-9.18,0-5.75,0-8.13V199.6q0-6.18-.09-10.37c-.06-2.79-.16-5.84-.28-9.13l-9.63-1V176l29.32-7.69,1.81,1.31-.5,20.44v19.75q0,3.57,0,8.16t.09,9.22C619.41,230.31,619.46,233.08,619.5,235.54Zm-11-80a11.21,11.21,0,0,1-7.75-2.91,9.53,9.53,0,0,1-3.25-7.47,9.75,9.75,0,0,1,3.25-7.53,11.13,11.13,0,0,1,7.75-3,11.33,11.33,0,0,1,7.84,3,9.7,9.7,0,0,1,3.28,7.53,9.49,9.49,0,0,1-3.28,7.47A11.42,11.42,0,0,1,608.5,155.54Z" style="fill:#36b6dd"/><path d="M664.69,156.35v20.81a30.23,30.23,0,0,1,21.62-8.93,25.72,25.72,0,0,1,14.44,4.22,28.57,28.57,0,0,1,10.19,12.43q3.75,8.22,3.75,20.22a46.83,46.83,0,0,1-3.72,19,32.34,32.34,0,0,1-10.44,13.41,25.94,25.94,0,0,1-15.78,4.94,28,28,0,0,1-11-2.19,25.28,25.28,0,0,1-9.34-6.94l-2.69,6.94H635.62v-3.94l8.44-.81q.06-3.69.13-8.31t.09-9.22q0-4.59,0-8.16V144.29l-9.37-.88V140l28.31-5.5,1.81,1.19Zm.25,24.56v48.88a16,16,0,0,0,5.18,2.75,19.2,19.2,0,0,0,5.57.81A16.12,16.12,0,0,0,684,231q3.9-2.31,6.28-8.53t2.38-17.91q0-15-4.72-21.28T676.06,177a22,22,0,0,0-5.62.69A14.11,14.11,0,0,0,664.94,180.91Z" style="fill:#36b6dd"/><path d="M753.5,235.54l7.81.81v3.94H723.94v-3.94l8.43-.81c0-2.5.09-5.29.13-8.38s.07-6.14.09-9.18,0-5.75,0-8.13V199.6q0-6.18-.09-10.37c-.06-2.79-.16-5.84-.28-9.13l-9.63-1V176l29.32-7.69,1.81,1.31-.5,20.44v19.75q0,3.57,0,8.16t.09,9.22C753.41,230.31,753.46,233.08,753.5,235.54Zm-11-80a11.21,11.21,0,0,1-7.75-2.91,9.53,9.53,0,0,1-3.25-7.47,9.75,9.75,0,0,1,3.25-7.53,11.13,11.13,0,0,1,7.75-3,11.33,11.33,0,0,1,7.84,3,9.7,9.7,0,0,1,3.28,7.53,9.49,9.49,0,0,1-3.28,7.47A11.42,11.42,0,0,1,742.5,155.54Z" style="fill:#36b6dd"/><path d="M846.19,235.54l7.81.81v3.94H816.62v-3.94l8.44-.81q.06-3.75.13-8.38t.09-9.18q0-4.56,0-8.13V199.6q0-6.18-.09-10.37c-.07-2.79-.16-5.84-.28-9.13l-9.63-1V176l29.31-7.69,1.82,1.31-.5,20.44v19.75q0,3.57,0,8.16t.09,9.22Q846.12,231.85,846.19,235.54Zm-11-80a11.21,11.21,0,0,1-7.75-2.91,9.53,9.53,0,0,1-3.25-7.47,9.75,9.75,0,0,1,3.25-7.53,11.13,11.13,0,0,1,7.75-3,11.33,11.33,0,0,1,7.84,3,9.7,9.7,0,0,1,3.28,7.53,9.49,9.49,0,0,1-3.28,7.47A11.42,11.42,0,0,1,835.19,155.54Z" style="fill:#36b6dd"/><polygon points="551.62 201.67 572.54 144.47 572.75 135.73 570.94 134.54 542.25 140.04 542.25 143.41 551.62 144.29 551.62 201.67" style="fill:#36b6dd"/><path d="M572.34,222.66q-.09-6.61-.09-12.81V178.46l-20.86,57h0v0l-8.81.81v3.94h38.75v-3.94l-8.69-.81Q572.44,229.29,572.34,222.66Z" style="fill:#36b6dd"/><polygon points="778.31 201.26 799.24 144.03 799.44 135.73 797.62 134.54 768.94 140.04 768.94 143.41 778.31 144.29 778.31 201.26" style="fill:#36b6dd"/><path d="M799,222.66q-.09-6.61-.09-12.81V178.06l-20.87,57.08c0,.13,0,.27,0,.4l-8.81.81v3.94H808v-3.94l-8.69-.81Q799.13,229.29,799,222.66Z" style="fill:#36b6dd"/></g></g></svg>