<svg xmlns="http://www.w3.org/2000/svg" xmlns:xlink="http://www.w3.org/1999/xlink" viewBox="0 0 1920 500"><defs><linearGradient id="blueGradient" x1="391.58" y1="114.75" x2="391.58" y2="424.84" gradientUnits="userSpaceOnUse"><stop offset="0" stop-color="#55caf9"/><stop offset="0.11" stop-color="#51c9f9" stop-opacity="0.96"/><stop offset="0.29" stop-color="#45c6fa" stop-opacity="0.87"/><stop offset="0.52" stop-color="#32c2fb" stop-opacity="0.71"/><stop offset="0.78" stop-color="#18bcfd" stop-opacity="0.5"/><stop offset="1" stop-color="#00b6ff" stop-opacity="0.3"/></linearGradient></defs><title>bilibili-evolved</title><g id="wide-dark"><path d="M294.18,136.7c16-6.58,30.22-14.37,54.19-21.95-1.6,73.82,0,120.16,9.75,194.79,39.05-4.2,125.3,12,130.61,44.8,4.2,25.91-47.52,70.94-156.54,70.5C324.86,332.41,308.1,205.2,294.18,136.7Z" style="fill:url(#blueGradient)"/><path d="M362.44,397.21a334.46,334.46,0,0,1-55.72,4.19c-4.88-61.54-13.94-138.5-23.56-203.28" style="fill:none;stroke:#f2f2f2;stroke-linecap:round;stroke-linejoin:round;stroke-width:8px"/><path d="M332.65,286.1c39.05-4.2,125.11,12,130.61,44.8C467.14,354,429.76,382,380,394" style="fill:none;stroke:#f2f2f2;stroke-linecap:round;stroke-linejoin:round;stroke-width:8px"/><path d="M280.58,181.13c-4.83-32.52-7.22-45-11.87-67.87,16-6.58,30.22-14.37,54.19-22-1.4,75-.1,108.34,7.61,177.65" style="fill:none;stroke:#f2f2f2;stroke-linecap:round;stroke-linejoin:round;stroke-width:8px"/><polyline points="372.54 325.39 399.93 336.87 359.34 369.19 353.33 317.33" style="fill:none;stroke:#f2f2f2;stroke-linecap:round;stroke-linejoin:round;stroke-width:8px"/><path d="M1265.53,295.52l.3,32.43H1173V322.6l14.08-1.38q.38-11.85.42-23.94t0-24.33v-6.88q0-12.24,0-24.37t-.42-24.21L1173,216.27v-5.35h89.58l-.16,31.21h-9L1246.1,217h-31.74q-.24,11.78-.27,23.86t0,24.56h21.26l2.38-17.37h7.8v39.63h-7.8l-2.22-16.6h-21.42v.46q0,13,0,25.51t.27,24.74h35.18l7.27-26.31Z" style="fill:#fff"/><path d="M1438.48,324.29l8.68.82V329h-38.75v-3.93l8.82-.82q.06-6.24.15-12.9t.1-12.78V233l-9.38-.87v-3.38l28.69-5.5,1.81,1.19-.5,20.63v53.5q0,6.18.09,12.81T1438.48,324.29Z" style="fill:#fff"/><path d="M1652.87,323.45l8.31.56V328l-27.38,1.56-1.06-7.93a31,31,0,0,1-9,6.28,25.68,25.68,0,0,1-10.84,2.28,27.47,27.47,0,0,1-15.16-4.35A30.13,30.13,0,0,1,1587,313.26q-4-8.19-4-19.75,0-12,4.28-20.4a31.22,31.22,0,0,1,11.47-12.82,30.08,30.08,0,0,1,16-4.4q10.88,0,18.25,8.69v-32.5l-10.44-1V227.7l29-5.5,1.82,1.19-.5,20.44Zm-20.63-5.75V268.08a14.3,14.3,0,0,0-4.69-2.63,15.65,15.65,0,0,0-4.75-.75,16.5,16.5,0,0,0-8.93,2.53q-4.06,2.53-6.47,8.66T1605,292.76q0,10.44,2.25,16.63t6.19,8.9a15.08,15.08,0,0,0,8.81,2.72,18,18,0,0,0,5.19-.75A14.6,14.6,0,0,0,1632.24,317.7Z" style="fill:#fff"/><path d="M1398.94,272.76a33.22,33.22,0,0,0-13.12-12.62,38.38,38.38,0,0,0-18.38-4.41,39,39,0,0,0-13.54,2.33l-19.57,51.05c.44,1,.9,2.07,1.43,3.06a32.42,32.42,0,0,0,12.62,13.12,37.43,37.43,0,0,0,19.06,4.69,38.37,38.37,0,0,0,19.07-4.59,32.26,32.26,0,0,0,12.75-13q4.56-8.44,4.56-19.88T1398.94,272.76ZM1378,317.45q-3.66,8-10.6,8t-10.59-8q-3.72-8-3.72-24.72t3.72-24.65q3.72-7.84,10.59-7.85t10.6,7.85q3.66,7.83,3.65,24.65T1378,317.45Z" style="fill:#fff"/><path d="M1571.43,270.45a25.45,25.45,0,0,0-10-10.53q-6.6-3.9-16.22-3.91a38.59,38.59,0,0,0-13.34,2.38c-.68.25-1.35.52-2,.8l-18.75,48.92a32.79,32.79,0,0,0,2.32,5.06,32.16,32.16,0,0,0,13.06,12.72,39.8,39.8,0,0,0,18.85,4.37,32.29,32.29,0,0,0,17.21-4.53A29.49,29.49,0,0,0,1573.93,313l-2.44-1.5a25,25,0,0,1-7.53,7,23.4,23.4,0,0,1-22.09-.22,20.4,20.4,0,0,1-8-9.06q-3-6.18-3.35-16.19h43.5a18.32,18.32,0,0,0,.63-3.62c.08-1.21.12-2.61.12-4.19A32,32,0,0,0,1571.43,270.45ZM1554,285.92q-1.5,2.47-6.06,2.47l-17.38-.13q.38-14.86,4.19-21.31t9.13-6.44a10.06,10.06,0,0,1,8.34,4.32q3.29,4.31,3.28,12.68Q1555.49,283.45,1554,285.92Z" style="fill:#fff"/><path d="M1346.58,258.08v3.81l-9.06,1.44-24.87,64.87h-8.82L1278.08,263l-7.87-1.06v-3.81h39.25v3.81l-9.19,1.06,16,45.81,15.38-45.56-10-1.31v-3.81Z" style="fill:#fff"/><path d="M1523.54,258.08v3.81l-9.06,1.44L1489.6,328.2h-8.81L1455,263l-7.88-1.06v-3.81h39.25v3.81l-9.18,1.06,16,45.81,15.37-45.56-10-1.31v-3.81Z" style="fill:#fff"/><path d="M647.34,206.9h56.88q15.45,0,24.73,3.67t13.33,10.05a26.62,26.62,0,0,1,4.06,14.6,24,24,0,0,1-3,11.64q-3,5.55-10.42,9.78t-20.31,6.51q21.85,2.13,31.4,10.17A25.83,25.83,0,0,1,753.52,294,30.32,30.32,0,0,1,751,305.87a28.33,28.33,0,0,1-8.64,10.88q-6.12,4.94-16.76,7.89t-27.06,3h-51.2v-5.52l14.51-1.42q.4-12.71.44-25.76t0-26.07V263q0-12.39,0-24.73t-.44-24.58l-14.51-1.26Zm49.78,6.15h-7.66q-.32,11.83-.39,23.9T689,261.49h6.31q12.47,0,18.7-6.67t6.23-18.65q0-11.05-5.44-17.08T697.12,213.05ZM689.46,321.6h8.29q13.1,0,20.43-6.9t7.34-20.23q0-14.06-7-20.59t-21.7-6.55H689q0,14.43.08,27.88T689.46,321.6Z" style="fill:#fff"/><path d="M791.52,322.85l7.82.81v3.94H762v-3.94l8.44-.81q.06-3.75.12-8.38c0-3.08.08-6.14.1-9.18s0-5.75,0-8.13V286.91q0-6.18-.1-10.37c-.06-2.79-.15-5.84-.28-9.13l-9.62-1v-3.06L790,255.66l1.81,1.31-.5,20.44v19.75q0,3.57,0,8.16t.1,9.22Q791.46,319.16,791.52,322.85Zm-11-80a11.23,11.23,0,0,1-7.75-2.91,9.57,9.57,0,0,1-3.25-7.47,9.78,9.78,0,0,1,3.25-7.53,11.1,11.1,0,0,1,7.75-3,11.31,11.31,0,0,1,7.85,3,9.74,9.74,0,0,1,3.28,7.53,9.53,9.53,0,0,1-3.28,7.47A11.44,11.44,0,0,1,780.52,242.85Z" style="fill:#fff"/><path d="M884.21,322.85l7.81.81v3.94H854.65v-3.94l8.44-.81q.06-3.75.12-8.38t.09-9.18q0-4.56,0-8.13V286.91c0-4.12,0-7.58-.1-10.37s-.15-5.84-.28-9.13l-9.62-1v-3.06l29.31-7.69,1.81,1.31-.5,20.44v19.75q0,3.57,0,8.16t.1,9.22Q884.15,319.16,884.21,322.85Zm-11-80a11.23,11.23,0,0,1-7.75-2.91,9.53,9.53,0,0,1-3.25-7.47,9.75,9.75,0,0,1,3.25-7.53,11.1,11.1,0,0,1,7.75-3,11.27,11.27,0,0,1,7.84,3,9.71,9.71,0,0,1,3.29,7.53,9.5,9.5,0,0,1-3.29,7.47A11.4,11.4,0,0,1,873.21,242.85Z" style="fill:#fff"/><path d="M929.4,243.66v20.81A30.28,30.28,0,0,1,951,255.54a25.7,25.7,0,0,1,14.44,4.22,28.51,28.51,0,0,1,10.19,12.43q3.75,8.22,3.75,20.22a46.83,46.83,0,0,1-3.72,19,32.34,32.34,0,0,1-10.44,13.41,25.94,25.94,0,0,1-15.78,4.94,28.08,28.08,0,0,1-11-2.19,25.28,25.28,0,0,1-9.34-6.94l-2.69,6.94H900.34v-3.94l8.43-.81c0-2.46.09-5.23.13-8.31s.07-6.16.09-9.22,0-5.78,0-8.16V231.6l-9.37-.88v-3.37l28.31-5.5,1.81,1.19Zm.25,24.56V317.1a15.91,15.91,0,0,0,5.19,2.75,19.13,19.13,0,0,0,5.56.81,16.09,16.09,0,0,0,8.34-2.31q3.91-2.31,6.28-8.53t2.38-17.91q0-15-4.72-21.28t-11.91-6.28a22,22,0,0,0-5.62.69A14.11,14.11,0,0,0,929.65,268.22Z" style="fill:#fff"/><path d="M1018.21,322.85l7.81.81v3.94H988.65v-3.94l8.44-.81q.06-3.75.12-8.38t.09-9.18q0-4.56,0-8.13V286.91c0-4.12,0-7.58-.1-10.37s-.15-5.84-.28-9.13l-9.62-1v-3.06l29.31-7.69,1.81,1.31-.5,20.44v19.75q0,3.57,0,8.16t.1,9.22Q1018.15,319.16,1018.21,322.85Zm-11-80a11.23,11.23,0,0,1-7.75-2.91,9.53,9.53,0,0,1-3.25-7.47,9.75,9.75,0,0,1,3.25-7.53,11.1,11.1,0,0,1,7.75-3,11.27,11.27,0,0,1,7.84,3,9.71,9.71,0,0,1,3.29,7.53,9.5,9.5,0,0,1-3.29,7.47A11.4,11.4,0,0,1,1007.21,242.85Z" style="fill:#fff"/><path d="M1110.9,322.85l7.81.81v3.94h-37.37v-3.94l8.43-.81c0-2.5.09-5.29.13-8.38s.07-6.14.09-9.18,0-5.75,0-8.13V286.91q0-6.18-.09-10.37c-.06-2.79-.16-5.84-.28-9.13l-9.63-1v-3.06l29.32-7.69,1.81,1.31-.5,20.44v19.75q0,3.57,0,8.16t.09,9.22C1110.81,317.62,1110.86,320.39,1110.9,322.85Zm-11-80a11.21,11.21,0,0,1-7.75-2.91,9.53,9.53,0,0,1-3.25-7.47,9.75,9.75,0,0,1,3.25-7.53,11.08,11.08,0,0,1,7.75-3,11.29,11.29,0,0,1,7.84,3,9.7,9.7,0,0,1,3.28,7.53,9.49,9.49,0,0,1-3.28,7.47A11.42,11.42,0,0,1,1099.9,242.85Z" style="fill:#fff"/><polygon points="816.34 288.98 837.25 231.78 837.46 223.04 835.65 221.85 806.96 227.35 806.96 230.72 816.34 231.6 816.34 288.98" style="fill:#fff"/><path d="M837.05,310q-.09-6.62-.09-12.81V265.77L816.1,322.82h0v0l-8.82.81v3.94H846v-3.94l-8.68-.81Q837.15,316.6,837.05,310Z" style="fill:#fff"/><polygon points="1043.02 288.57 1063.95 231.34 1064.15 223.04 1062.34 221.85 1033.65 227.35 1033.65 230.72 1043.02 231.6 1043.02 288.57" style="fill:#fff"/><path d="M1063.74,310q-.09-6.62-.09-12.81v-31.8l-20.87,57.09c0,.13,0,.27,0,.4l-8.81.81v3.94h38.75v-3.94l-8.69-.81Q1063.84,316.6,1063.74,310Z" style="fill:#fff"/></g></svg>