<svg viewBox="1.6 6 18.8 12.1" xmlns="http://www.w3.org/2000/svg">
  <path d="M20.308 11.099l-.143-.029c-.031.105-.075.208-.092.316-.205 1.333-.448 2.655-.982 3.904-.274.641-.582 1.261-1.164 1.689-.589.433-1.168.395-1.63-.168a4.466 4.466 0 0 1-.698-1.141c-.418-1.047-.771-2.12-1.165-3.177-.505-1.357-.985-2.724-1.55-4.056-.347-.817-.865-1.542-1.66-2.02-.535-.32-1.526-.354-2.008.099.169.08.327.224.463.206.614-.083 1.023.224 1.31.692.3.489.58 1.003.777 1.541.566 1.553 1.072 3.129 1.628 4.686.42 1.173.877 2.338 1.717 3.29.565.638 1.247 1.008 2.143.828.804-.16 1.291-.703 1.655-1.375.75-1.386 1.025-2.917 1.285-4.448.047-.278.076-.558.114-.837Zm-7.522 6.351c-.23-.08-.406-.202-.573-.189-.475.036-.855-.137-1.088-.516-.348-.564-.7-1.142-.929-1.76-.571-1.538-1.063-3.106-1.608-4.654-.393-1.116-.847-2.208-1.603-3.138-.404-.498-.882-.897-1.55-.987-1.053-.143-1.776.352-2.278 1.226-.934 1.628-1.196 3.448-1.464 5.265-.008.056.042.122.1.277.057-.174.09-.25.105-.33.182-.89.326-1.792.55-2.67.252-.985.59-1.949 1.304-2.713.729-.78 1.525-.749 2.104.14.373.583.68 1.205.914 1.856.613 1.672 1.147 3.373 1.76 5.044.402 1.1.913 2.154 1.811 2.957.702.627 1.718.737 2.444.19l.001.002Zm2.565.032c-.196-.098-.346-.24-.475-.223-.723.095-1.183-.306-1.438-.873-.535-1.19-.997-2.412-1.47-3.628-.57-1.469-1.092-2.958-1.691-4.414-.291-.72-.779-1.344-1.408-1.8-.67-.48-1.65-.506-2.207-.034.152.082.302.237.423.217.689-.114 1.116.257 1.41.783.337.602.646 1.227.882 1.875.594 1.625 1.117 3.276 1.71 4.9.375 1.028.847 2.015 1.628 2.813.736.752 1.749.925 2.636.384ZM5.738 7.61c-.744.963-1.687 4.85-1.36 5.331.042-.177.088-.317.108-.46.221-1.551.554-3.07 1.27-4.48.052-.101-.01-.26-.018-.391Zm10.5 8.75c.732-.912 1.69-4.812 1.342-5.337-.044.25-.082.442-.112.636-.227 1.472-.538 2.918-1.222 4.258-.06.118-.008.295-.008.444v-.001ZM7.093 11.113c-.097.591-.316 1.166-.207 1.782.123-.587.391-1.156.207-1.782Zm8.118-.003-.196-.034c-.071.585-.289 1.153-.19 1.758l.101.013.285-1.737Z" />
</svg>
